<svg xmlns="http://www.w3.org/2000/svg" width="1919.938" height="92" viewBox="0 0 1919.938 92">
  <defs>
    <style>
      .cls-1 {
        fill-rule: evenodd;
        fill: #fff;
      }
    </style>
  </defs>
  <path class="cls-1" d="M1492.7,76.435a23.312,23.312,0,0,0-7.05,2.168,9.9,9.9,0,0,1-6.07,1.232c-7.32-1.286-13.19.352-19.55,1.068-11.75,1.326-22.91,3.718-36.09,2.058-4.19-.525-8.28.737-11.55,1.851-0.8.271-1.55,0.782-1.43,1.141a4.512,4.512,0,0,0,2.47.688l12.96-.491c15.5-.188,31.05-0.22,46.52-0.619,16.07-.422,32.06-1.6,48.18-0.179a13.71,13.71,0,0,0,6.61-.989c2.35-1.08,4.41-2.246,6.59-3.375,4.48-2.314,10.15-3.333,17.79-2.409a60.6,60.6,0,0,0,17.97-.71c9.84-1.664,16.88.01,17.95,3.988,0.25,0.9-.68,1.838-0.75,2.762-0.09,1.287,3.13,1.935,6.33,1.371,4.53-.8,7.07-2.066,5.31-3.909-3.46-3.632.62-6.314,7.32-8.729a48.419,48.419,0,0,1,13.07-2.553l23.81-1.719c6.86-.454,13.37-1.209,18.62-3,3.38-1.15,5.35-2.612,4.1-4.376-0.97-1.357-5.64-2.3-10.74-2.053l-10.88.9a43.61,43.61,0,0,1-7.23-.246c-1.53-.189-3.35-0.806-3.67-1.349-0.31-.523.67-1.475,1.88-1.759,8.31-1.956,15.56-4.765,26.53-4.68a33.375,33.375,0,0,0,11.66-1.988c8.76-3.181,19.7-3.815,31.11-3.877,6.92-.043,8.77.686,8.38,3.252a26.83,26.83,0,0,1-.89,4.173c-1.45,4.535-5.49,5.787-18.51,5.786-1.85,0-3.72-.156-5.55-0.1-2.64.079-5.06,0.526-5.22,1.611-0.16,1.029,2.05,1.613,4.33,2.034a36.674,36.674,0,0,0,10.86.356l19.5-2.405c2.98-.382,6.12-0.948,8.96-0.273A77.949,77.949,0,0,0,1747.7,62.7a20.646,20.646,0,0,1,6.78.8c4.81,1.923,9.54,2.349,16.38,1.226a54.544,54.544,0,0,1,12.81-.051c9.06,0.915,17-.212,25.4-1.235,9.39-1.134,14.96-2.974,15.73-6.867,0.67-3.411,5.59-6.534,13-8.237,9.03-2.073,16.99-4.9,26.22-6.54,24.42,11.858,79.97-1.543,97.12-7.628,2.29-.811,3.44-2,2.33-3.217-1.41-1.538-5.05-1.883-8.84-2.028-8.77-.336-61.34-9.986-69.59-8.63-12.25,2.017-25.18,2.641-38.3,2.794l-20.49.072c-4.39-.01-8.69,0-12.49,1.062-8.67,2.44-18.59,2.736-28.55,2.1-7.69-.487-14.73-0.392-21.45,1.255a29.266,29.266,0,0,1-10.69.729c-9.75-1.351-17.49-.251-25.99,1.873-10.73,2.678-22.71,4.27-32.96-.523a8.313,8.313,0,0,0-1.56-.371c-5.91-1.164-12.45-.528-16.18,1.636-1.67.973-2.6,2.127-4.31,3.087-3.24,1.816-8.01,2.964-13.5,3.563-4.02.439-6.85-.7-10.08-1.357a30.194,30.194,0,0,0-7.02-.477,21.851,21.851,0,0,1-9.68-1.467c-7.12-2.582-7.37-2.51-14.94-.168-3.83,1.186-7.65,2.385-11.28,3.655a113.648,113.648,0,0,1-17.35,4.093,71.4,71.4,0,0,1-20.02.5c-5.6-.624-8.9-2.841-7.66-4.916,1.04-1.758,4.85-2.517,11.7-2.295,1.22,0.039,2.41.216,3.62,0.31,7.1,0.547,11.97-.794,15.87-2.787,2.35-1.2,3.11-2.511.77-3.881-2.54-1.484-6.39-2.184-11.11-1.285-5.98,1.14-11.47,1.053-17.89.783-7.16-.3-14.71.293-21.99,0.731a85.065,85.065,0,0,1-9.06.5c-11.19-.458-22.29.066-33.43,0.481-17.29.644-34.67,1.656-51.94,1.52-23.18-.2-45.46,2.07-68.4,2.481-11.48.2-23.03,1.309-34.78,1.681a148.611,148.611,0,0,1-27.28-1.284,101.139,101.139,0,0,0-35.6.922,97.1,97.1,0,0,1-19.54,1.818c-9.94-.009-19.92.2-29.73-0.582a86.826,86.826,0,0,0-16.51.422c-6.14.661-6.27,0.719-6.27,3.984,0.01,2.713-3.1,3.941-9.83,3.679a51.037,51.037,0,0,1-7.01-.876c-1.8-.327-2.66-1.117-1.86-1.753,1.29-1.028,3.4-1.905,4.83-2.915,1.5-1.067-.39-2.343-3.41-2.764a49.378,49.378,0,0,0-10.95,0,111.8,111.8,0,0,1-25.68-.65,64.811,64.811,0,0,0-19.81-.046c-6.38.925-13.59,1.671-19.91,0.4-8.06-1.619-15.44-.912-23.47-0.461-5.56.308-10.77,0.945-16.15,1.39-3.12.261-6.03-.781-5.99-2.072,0.01-.45.68-0.887,0.78-1.34,0.57-2.35-.79-3.46-5.4-3.587-12.25-.337-24.78-1.429-36.07,1.481a30.34,30.34,0,0,1-8.71.805c-12.01-.951-23.465.221-35.119,0.669-20.158.776-22.323,1.846-18.259,9.176a8.959,8.959,0,0,0,1.523,2.013c1.718,1.707,7.766,2.328,10.384.78,4.584-2.71,11-3.418,18.82-3.506,3.061-.033,6.091-0.377,9.131-0.6a63.675,63.675,0,0,1,20.99,2.168c3.59,0.917,4.07,2.608.91,3.536L1004.12,53.6c-2,.585-4.234,1.29-6.63.826-6.583-1.271-11.371-.169-17.107.922-8.994,1.712-19.487-.642-19.879-4.44-0.275-2.663-3.125-4.981-4.853-7.441-1.615-2.3-2.45-4.374-.445-6.779,3.039-3.643-1.179-6.463-10.759-7.684-7.606-.969-15.472-1.943-23.622-0.681a54.418,54.418,0,0,1-21.354-.654,21.5,21.5,0,0,0-12.026.421c-5.788,2.237-12.465,2.189-20.352,2.082-11.324-.16-22.064-1.2-33.044-1.958-5.226-.358-9.576-1.111-12.312-2.876-3.674-2.371-9.846-2.851-16.093-2.994-4.9-.113-9.92.048-14.743,0.355a54.714,54.714,0,0,1-12.714-.511c-8.6-1.427-17.118-2.92-26.943-2.173a29.378,29.378,0,0,1-6.93-.866,147.118,147.118,0,0,0-58.352.539c-1.593.331-2.941,0.825-4.553,1.141-3.849.754-7.4,0.278-9.151-1.206-1.916-1.623-.473-4.166-6.817-4.57-5.167-.328-8.156,1.747-12.483,2.52-0.543.1-.958,0.283-1.47,0.407-6.852,1.651-9.176,1.664-13.851-.793-3.986-2.094-7.448-3.85-15.069-2.607-2.442.4-5.4,0.047-6.59-.811-4.322-3.117-11.221-3.3-19.139-3.087-8.476.229-17.2-.708-25.357,1.006-2.754.578-7.263,0.1-10.959,0s-7.99-.875-10.919-0.424c-8.058,1.24-14.9-.067-21.311-1.427C512.087,6.4,495.2,5.733,477.679,6.641a53.012,53.012,0,0,1-10.955-.209c-14.858-2.294-30.48-2.329-45.815-2.525a253.14,253.14,0,0,1-25.8-1.209c-6.7-.777-13.4-1.085-20.245-1.3l-35.3-1.336A159.081,159.081,0,0,0,312.3,1.252c-12.111,1.56-15.5,1.7-27.746,1.177a53.831,53.831,0,0,0-5.562-.062c-13.3.839-26.81,1.449-39.773,2.7A201.635,201.635,0,0,1,213.765,6.1c-9.979-.291-19.682-0.107-28.562,1.825-3.47.755-8.154,0.843-12.376,1.057-12.281.62-25.964-.822-36.21,2.8a16.157,16.157,0,0,1-3.581.1c-10.143-.061-19.053,1.334-28.029,2.649-24.886,3.653-50.252,6.777-77.259,8.09-4.863.236-9.811,0.461-14.426,0.993C2.271,24.881-1.16,26.992.433,31.37,2.846,38.005,10.76,44,19.187,49.913c2.276,1.6,6.012,2.544,10.645,2.673,4.295,0.12,9.081.391,12.8-.136C53.149,50.96,64.4,51.168,75.362,50.768c11.013-.4,22.093-0.76,33.209-0.8,19.2-.056,38.509-0.12,56.753,3.466a112.885,112.885,0,0,0,21.883,1.832c21.5-.1,43.318,2.573,64.592.36,1.672-.173,3.688.084,5.532,0.077,12.647-.052,25.874.673,35.184-3.51,1.807-.811,6.882.369,6.7,1.556-0.175,1.14-1.344,2.245-1.4,3.382-0.048,1.039,2.246,1.992,4.752,1.778,14.29-1.222,29.916-.108,43.41-2.677a33.237,33.237,0,0,1,14.208.048c9.567,2.448,19.3,1.925,28.572.664a133.044,133.044,0,0,1,27.385-.541A241.576,241.576,0,0,0,467.181,55a84.533,84.533,0,0,1,14.345-1.015c16.115,0.417,32.254,1.256,48.241.024,4.479-.345,9.069.406,11.31,1.971,2.626,1.833,3.107,4.171,6.4,5.756,4.747,2.287,11.6-.542,17.591.606,4.462,0.856,9.339,1.39,14.054,2.042a77.662,77.662,0,0,0,16.536.706,360.957,360.957,0,0,1,51.581-.647,75.258,75.258,0,0,0,14.559-.6c9.8-1.391,18.291-.215,26.617,1.651,4.312,0.966,8.167,2.225,12.4,3.25,3.144,0.761,6.451,1.476,9.909,1.977a16.455,16.455,0,0,0,5.087-.381c1.649-.384,1.675-1.192.769-1.843-0.86-.619-2.357-1.122-3.221-1.741-2.851-2.043-1.729-3.216,3.936-3.449,15.974-.685,31.973-1.355,48.029-1.782a101.554,101.554,0,0,1,19.84,1.831c1.306,0.224,2.642,1.157,2.5,1.691s-1.849,1.262-3.316,1.446c-7.14.894-14.7,0.5-22.124,0.571-9.41.094-12.021,0.688-20.08,4.371,10.574,0.179,18.258,3.441,28.986,2.648,8.477-.627,15.795.269,22.178,2.681,4.1,1.548,8.968,2.219,15.311,1.641,10.529-.959,11.368-0.877,15.546,2.7,3.565,3.046,9.2,4.244,17.272,4.575l22.19,1.152c4.851,0.285,8.536-.265,11.086-1.789,0.976-.583,1.593-1.262,2.7-1.8,3.6-1.771,5.925-1.979,11.032-1.061,6.771,1.217,13.348,2.632,20.325,3.634,9.866,1.417,16.3-.2,18.187-4.276a6.425,6.425,0,0,0-.04-1.39c0.293-1.24,1.981-2.172,4.841-2.757a195.971,195.971,0,0,1,39.091-3.509,13.591,13.591,0,0,1,7.483,1.821c4.052,2.7,2.086,4.846-6.132,5.852-5.974.727-11.651,1.515-15.983,3.27-2.844,1.157-3.217,2.761-.79,3.764a14.58,14.58,0,0,0,8.461.6c8.336-2.342,19.212-1.645,28-3.36a36.664,36.664,0,0,1,10.931-.022l7.12,0.878c10.18,1.028,11.96.7,14.29-2.971,1.01-1.582,1.51-3.179,4.7-4.423a19.547,19.547,0,0,1,10.19-.494c2.88,0.7,4.58,1.763,3.69,2.957-1.15,1.537-3.48,2.942-4.72,4.473-1.06,1.3-2.11,2.925,1.6,3.842,3.45,0.849,7.15.022,10.51-.562a22.883,22.883,0,0,0,7.7-2.891,37.259,37.259,0,0,1,7.02-3.128c5.99-1.817,14.16-.807,16.39,1.96,0.88,1.1.74,2.3,1.33,3.443,1.32,2.544,5.18,3.78,11.8,3.088,9.68-1.012,19.5-1.327,29.41-1.48,16.2-.249,31.91-1.64,47.82-2.543,11.23-.64,21.73-2.046,29.88-5.117a40.933,40.933,0,0,1,14.98-2.307A128.643,128.643,0,0,0,1243.2,78a148.9,148.9,0,0,1,15.96-1.757c9.69-.784,19.6-1.231,29.16-2.169l40.97-4.549c9.28-1.01,11.71.059,9.43,3.92a6.756,6.756,0,0,0-1.12,2.023c-0.13,1.069,1.72,1.713,4.25,1.994a33.712,33.712,0,0,0,5.5.246c18.78-1.126,38.82-.314,55.34-4.954a44.35,44.35,0,0,1,5.05-.881c4.34-.639,8.94-0.763,12.13.612,8.03,3.448,18.27,3.478,29.05,3.018,6.18-.257,12.39-0.468,18.59-0.515a323.38,323.38,0,0,0,43.38-3.6c2.9-.41,5.79-0.86,8.77-1.154,6.18-.606,9.77.7,8.12,3.041-1.07,1.526-1.47,3.219-5.14,4.337C1507.46,74.164,1506.58,74.168,1492.7,76.435ZM1382.27,58.526c0.27-1.334-1.6-2.2-4.85-2.586l-7.22-.616c-3.1-.373-5.1-1.136-5.85-2.417a20.874,20.874,0,0,0-3.28-3.918c-1.35-1.324-.11-2.233,2.79-2.922,6.77-1.58,13.54-3.159,20.39-4.759a20.188,20.188,0,0,1,8.8-.047c10.54,2.46,20.23.811,29.7-.9,4.51-.816,8.75-2.038,13.49-0.563,3.7,1.156,1.99,4.12-3.19,6.208a37.708,37.708,0,0,1-14.4,2.8c-11.22.019-16.05,2.953-20.45,6.056-2.41,1.7-1.01,4.475,6.96,4.2,1.84-.065,3.7-0.235,5.51-0.191,3.76,0.092,5.86,1.257,4.25,2.373-3.81,2.628-7.56,5.054-15.92,6.372-11.93,1.879-15.08,1.017-17.64-3.608-0.61-1.1-.09-2.286-0.09-2.984A17.735,17.735,0,0,0,1382.27,58.526ZM1024,70.43c-7.9-.881-10.93-4.526-5.29-6.661a89.931,89.931,0,0,1,10.24-2.9c2.76-.669,6.32-0.742,8.64.173a38.765,38.765,0,0,0,17.69,3.137c8.07-.355,16.1-0.477,21.92-3,5.03-2.178,11.01-1.672,16.87-.5,5.41,1.08,6.5,3.9,1.88,5.275a43.587,43.587,0,0,1-9.62,1.931l-54.96,2.889-2.53-.016C1027.65,70.687,1025.78,70.627,1024,70.43ZM895.469,56.652c5.829,1.471,6.514,3.475.81,4.941a101.82,101.82,0,0,0-11.051,3.549c-4.858,1.845-11.011,1.989-17.088.839-7.237-1.368-14.267-2.907-21.223-4.476-3.866-.872-4.116-3.174-0.527-4.175a82.61,82.61,0,0,1,26.876-2.867C879.809,55.365,888.314,54.844,895.469,56.652Zm613.381-1.9a1.173,1.173,0,0,1-.5,1.916c-5.31,2.935-14.11,4.1-22.37,4.251a155.358,155.358,0,0,0-29.84,3.026,16.669,16.669,0,0,1-9.98-.64c-2.52-1.156-2.19-2.593-.59-3.926,1.64-1.361,4.77-2.136,8.45-2.487l23.37-2.02c8.99-.661,18.57.559,27.02-1.445C1506.27,53.953,1508.28,54.242,1508.85,54.756ZM763.227,44.981c1.911,0.211,2.863.891,2.787,1.619s-1.338,1.524-3.253,1.306c-9.213-1.05-16.709-.2-23.46,2.147a26.687,26.687,0,0,1-6.8.862q-14.577.411-29.215,0.515c-2.456.017-5.077-.564-4.831-1.69,0.122-.555,1.8-1.5,2.807-1.488a259.74,259.74,0,0,0,43.83-3.687c2.626-.416,6.061-0.157,10.048-0.225C757.265,44.5,760.305,44.658,763.227,44.981Zm809.533,20.7c4.97,0.568,6.24,3.023,2.46,4.491a42.861,42.861,0,0,1-19.86,2.5c-4.11-.392-8.05-1.077-11.95-1.72-2.9-.477-5.19-1.235-4.74-2.594,0.41-1.262,2.66-2.123,5.58-2.5,4.58-.6,9.38-0.959,13.95-1.407C1563.3,64.871,1568.13,65.147,1572.76,65.677Zm-466.21-18.92c2.22-1.662,6.02-1.178,9.6-.821a90.706,90.706,0,0,0,29.97-1.84,53.22,53.22,0,0,1,22.72-.353,3.843,3.843,0,0,1,2.18,1.026c0.18,0.342-.48.89-1.25,1.121a62.889,62.889,0,0,1-17.04,2.233l-36.82.42C1109.26,48.7,1105.09,47.86,1106.55,46.757Zm375.6-5.37c-2.88.2-6.49,0.709-6.68-1.095-0.11-1,2.17-1.788,4.7-1.824a70.137,70.137,0,0,0,18.6-2.449c5.71-1.636,11.7-.606,17.22.485,0.85,0.168,1.65.716,1.61,1.073a2.551,2.551,0,0,1-1.85,1.037,115.561,115.561,0,0,1-20.9,2.407l-7.5-.122ZM960.956,67.112c-3.375-.315-5.14-1.23-4.6-2.553,0.4-.986,2.416-1.957,4.663-1.761a60.611,60.611,0,0,0,17.059-1.053,10.2,10.2,0,0,1,7.363,1.5c1.7,1.154.958,2.22-1.581,3.06-3.958,1.308-8.831,1.368-16.454,1.157C967,67.445,963.914,67.385,960.956,67.112ZM906.011,51.83c4.984-1.914,11.284-2.6,18.4-1.805,2.466,0.276,4.082,1.076,4.423,2.052,0.373,1.069-1.4,1.679-3.849,2.028-5.031.716-10.889,0.418-15.387,1.922-2.293.766-5.8-.377-5.6-2.377A3.807,3.807,0,0,1,906.011,51.83ZM790.825,37.965a4.019,4.019,0,0,1-2.189-1.778c-0.134-.294,1.09-0.825,2.03-0.978,3.3-.536,6.681-1.027,10.145-1.4,3.634-.392,7.108.489,8.322,1.966s-0.749,2.863-4.5,3.139l-4.449.214C796.127,39.059,793.028,38.861,790.825,37.965Zm742.285,4.712c-0.66-1.3,3.9-2.484,9.06-2.425a47.524,47.524,0,0,1,5.25.365c2.36,0.293,4.4.889,4.36,1.872-0.04,1.044-2.45,1.463-4.83,1.682-1.72.159-3.55,0.171-4.92,0.23C1538.08,44.288,1534,44.424,1533.11,42.677Zm220.91-9.239c0.57,1.319-3.56,2.472-8.94,2.48-2.52,0-4.68-.39-5.06-1.464-0.56-1.594,2.92-2.88,7.76-2.916C1751.13,31.595,1753.48,32.189,1754.02,33.438Zm-423.24,8.641c2.6-.576,5.39-1.226,8.48-0.519,0.85,0.193,1.7.8,1.51,1.141-0.98,1.791-5.63,3.469-9.98,3.466a13.6,13.6,0,0,1-3.78-1.012C1326.26,43.6,1328,42.7,1330.78,42.079Zm-55.6,24.764a5.71,5.71,0,0,1,2.56.787c0.67,0.74-.55,1.308-2.34,1.552-2.77.379-5.6,0.759-8.5,0.934-3.03.184-6.47-1.069-5.93-1.959,0.66-1.064,2.94-1.319,5.32-1.495l4.03-.126C1271.66,66.613,1273.49,66.642,1275.18,66.843Zm-369.752,16c-3.978-.115-6.61-1.539-5.538-2.984,1.035-1.4,4.062-1.714,7.229-1.441,3.274,0.282,5.225,1.2,4.989,2.563C911.057,82.189,909.081,82.946,905.428,82.841Zm846.212-27.7c0.07-1.4,3.32-2.505,7.2-2.436a5.613,5.613,0,0,1,2.7.7c1.47,1.452-2.6,3.3-6.68,3.155C1752.87,56.353,1751.6,55.869,1751.64,55.138Zm-962.332-7.39c-1.58-.379-2.885-0.961-1.708-1.619,1.51-.845,3.927-0.851,6.123-0.289,1.508,0.385,2.521.959,1.032,2.032C793.628,48.484,791.464,48.265,789.308,47.748ZM1368.2,71.335a7.072,7.072,0,0,1,2.74-.742c0.71-.029,2.28.472,2.24,0.708-0.13.8-1.89,1.021-3.83,1.043C1367.9,72.194,1367.32,71.807,1368.2,71.335Zm-703.243-22.7c-1.036.062-2.07,0.167-3.108,0.157a1.065,1.065,0,0,1-.788-0.556c-0.041-.55.824-0.757,2.32-0.625Zm455.4,24.941a2.834,2.834,0,0,1-.56-0.544l2.71-.493,0.62,0.576Zm-76.35-32.727a1.021,1.021,0,0,1-.81-0.42c0.2-.549,1.06-0.66,2.15-0.278,0.25,0.084.04,0.348,0.04,0.534A6.858,6.858,0,0,1,1044.01,40.844ZM873.141,73.572a1.983,1.983,0,0,1-1.083-.522c-0.391-.534.273-0.909,1.762-0.915,1.39-.006,2.026.366,1.888,0.919C875.366,73.618,874.47,73.821,873.141,73.572ZM1763.95,45.018c-0.28-.044-0.57-0.379-0.44-0.421,1.03-.355,1.62-0.249,1.65.27A5.549,5.549,0,0,1,1763.95,45.018ZM708.3,74.523c2.557,0.115,4.426.65,4.372,1.675-0.053.989-1.732,1.619-4.511,1.514-2.6-.1-4.551-0.741-4.629-1.713C703.446,74.961,705.534,74.541,708.3,74.523ZM1679.24,77.7c0.68,0.274,1.89.53,1.97,0.833,0.17,0.672-.79,1.289-2.77,1.32a2.973,2.973,0,0,1-1.96-.794C1676.32,78.4,1677.21,77.847,1679.24,77.7Zm-18.56-46.346-0.92.387-0.43-.466Z" transform="translate(-0.063)"/>
</svg>
