<svg id="logo" xmlns="http://www.w3.org/2000/svg" width="689.688" height="237" viewBox="0 0 689.688 237">
  <defs>
    <style>
      .cls-1 {
        fill: #f0f1f6;
      }

      .cls-1, .cls-2 {
        fill-rule: evenodd;
      }
    </style>
  </defs>
  <path class="cls-1" d="M118.135,0C52.891,0,0,53.054,0,118.5S52.891,237,118.135,237s38.382-53.054,38.382-118.5S183.38,0,118.135,0Z"/>
  <path id="Stokes." class="cls-2" d="M145.681,139.766q6.055,4.788,6.055,13.545a16.565,16.565,0,0,1-6.539,13.831q-6.54,5.075-18.811,5.074-13.159,0-21.031-6.261t-7.871-17.063H81.9a31.753,31.753,0,0,0,5.692,18.577,38.128,38.128,0,0,0,16.187,12.89,54.612,54.612,0,0,0,22.6,4.706q18.649,0,29.79-8.716t11.141-23.2a30.3,30.3,0,0,0-4-15.795,35.018,35.018,0,0,0-12.271-11.744q-8.277-5.032-22.928-9.214t-20.748-9.224a15.446,15.446,0,0,1-6.1-12.34q0-9.1,6.418-14.223t17.883-5.125q12.351,0,19.133,6.2t6.782,17.042h15.581a33.827,33.827,0,0,0-5.207-18.25A35.68,35.68,0,0,0,147.175,67.38a47.627,47.627,0,0,0-21.6-4.747q-17.761,0-28.862,9.207t-11.1,23.283a27.455,27.455,0,0,0,9.082,20.91q9.083,8.471,29.023,14.281Q139.625,134.979,145.681,139.766Zm119.406-75.5h-90.9V77.118h37.7v106.31h15.42V77.118h37.782V64.27Zm102.291,55.9q0-17.431-5.813-30.567t-16.59-20.051a45.111,45.111,0,0,0-24.906-6.915,44.283,44.283,0,0,0-24.664,7q-10.777,7-16.671,20.173t-5.893,30.362v8.593q0.16,16.86,6.095,29.667a45.52,45.52,0,0,0,16.671,19.723,44.466,44.466,0,0,0,24.623,6.916q14.209,0,24.866-6.875t16.469-19.928q5.814-13.053,5.813-30.567v-7.529Zm-15.42,8.675q-0.242,20.706-8.477,31.795T320.23,171.725q-14.935,0-23.452-11.744T288.261,127.7v-8.757q0.242-20.132,8.678-31.467t23.13-11.335q15.1,0,23.493,11.335t8.4,32.531v8.839Zm106.893,54.587h18.568l-49.892-66.536L473.786,64.27H455.057l-52.234,58.924V64.27h-15.5V183.428h15.5V143.163l14.37-15.14ZM554.118,115.5H503.176V77.118h58.37V64.27h-73.87V183.428h74.677V170.579H503.176V128.35h50.942V115.5Zm80.816,24.265q6.056,4.788,6.055,13.545a16.562,16.562,0,0,1-6.539,13.831q-6.54,5.075-18.811,5.074-13.16,0-21.03-6.261t-7.872-17.063H571.156a31.749,31.749,0,0,0,5.692,18.577,38.124,38.124,0,0,0,16.186,12.89,54.612,54.612,0,0,0,22.605,4.706q18.649,0,29.791-8.716t11.141-23.2a30.289,30.289,0,0,0-4-15.795A35.018,35.018,0,0,0,640.3,125.608q-8.276-5.032-22.928-9.214t-20.748-9.224a15.448,15.448,0,0,1-6.095-12.34q0-9.1,6.418-14.223t17.882-5.125q12.353,0,19.134,6.2t6.781,17.042h15.581a33.818,33.818,0,0,0-5.207-18.25A35.668,35.668,0,0,0,636.428,67.38a47.627,47.627,0,0,0-21.6-4.747q-17.761,0-28.862,9.207t-11.1,23.283a27.454,27.454,0,0,0,9.082,20.91q9.082,8.471,29.023,14.281Q628.88,134.979,634.934,139.766Zm38.473,42.025q2.3,2.536,6.9,2.537t6.983-2.537a8.853,8.853,0,0,0,2.382-6.3,9.371,9.371,0,0,0-2.382-6.547q-2.382-2.618-6.983-2.619t-6.9,2.619a9.562,9.562,0,0,0-2.3,6.547A9.027,9.027,0,0,0,673.407,181.791Z"/>
</svg>
