<?xml version="1.0" encoding="utf-8"?>
<!-- Generator: Adobe Illustrator 23.0.0, SVG Export Plug-In . SVG Version: 6.00 Build 0)  -->
<svg version="1.1" id="Layer_1" xmlns="http://www.w3.org/2000/svg" xmlns:xlink="http://www.w3.org/1999/xlink" x="0px" y="0px"
	 viewBox="0 0 2500 676.3" style="enable-background:new 0 0 2500 676.3;" xml:space="preserve">
<style type="text/css">
	.st0{display:none;fill-rule:evenodd;clip-rule:evenodd;fill:#FFFFFF;}
	.st1{fill-rule:evenodd;clip-rule:evenodd;}
</style>
<g>
	<path class="st0" d="M0-911.9h2500v2500H0V-911.9z"/>
	<path class="st1" d="M1219,338.1c14.2,0,25.6-11.5,25.6-25.6V241c0-14.1-11.5-25.6-25.6-25.6h-107.9v122.8L1219,338.1L1219,338.1z"
		/>
	<path class="st1" d="M2353.5,0H146.5C75.8,0,18.4,57.4,18.4,128.1v420c0,70.8,57.4,128.2,128.1,128.2h1214.7l-229.6-314.1h-20.5
		v166.4H902l-37.4-96.1H683.1l32.9-83.7h115.7l-75.6-193.1L607.5,528.6H531l-90.8-196.6l-91.7,196.7H272L118.1,138.8h112.1
		l84.5,214.5l98.8-215.4h53.4l97.9,215.4l85.4-214.5h210l145.9,369.3V138.8h272c42.5,0,76.9,34.4,76.9,76.9v103.4
		c0,42.5-34.4,76.9-76.9,76.9l205,280.3h870.3c70.8,0,128.2-57.4,128.2-128.2v-420C2481.6,57.4,2424.2,0,2353.5,0z M1504.5,528.6
		h-105V138.8h105V528.6L1504.5,528.6z M1922.7,528.6h-101.4l-165.5-219.8v219.8h-105V138.8h105.9l161.1,217.1V138.8h105
		L1922.7,528.6L1922.7,528.6z M2092.1,432.5H2234c14.2,0,25.6-11.5,25.6-25.6v-38.4h-129.5l32-76.5h202V449
		c0,42.5-34.4,76.9-76.9,76.9h-248.5c-42.5,0-76.9-34.4-76.9-76.9V215.7c0-42.5,34.4-76.9,77.8-76.9h324.1l0.4,79.2h-272.1
		c-14.1,0-25.6,11.5-25.6,25.6v163.2C2066.5,421,2078,432.5,2092.1,432.5L2092.1,432.5z"/>
</g>
</svg>
