<?xml version="1.0" encoding="iso-8859-1"?>
<!-- Generator: Adobe Illustrator 19.0.0, SVG Export Plug-In . SVG Version: 6.00 Build 0)  -->
<svg version="1.1" id="Layer_1" xmlns="http://www.w3.org/2000/svg" xmlns:xlink="http://www.w3.org/1999/xlink" x="0px" y="0px"
	 viewBox="0 0 495.928 495.928" style="enable-background:new 0 0 495.928 495.928;" xml:space="preserve" width="80" height="80">
<g>
	<path style="fill:#000;" d="M205.12,329.904h-21.728c-12.344,0-23.8-6.136-30.632-16.4l-7.448-11.168l13.312-8.872l7.448,11.168
		c3.864,5.808,10.344,9.272,17.32,9.272h21.728c1.368,0,2.736-0.136,4.072-0.408l26.912-5.376c2.232-0.456,3.864-2.44,3.864-4.72
		v-37.504h16V303.4c0,9.872-7.032,18.464-16.72,20.408l-26.912,5.376C209.984,329.664,207.552,329.904,205.12,329.904z"/>
	<path style="fill:#000;" d="M209.168,401.904h-25.776c-12.344,0-23.8-6.136-30.632-16.4l-7.448-11.168l13.312-8.872
		l7.448,11.168c3.864,5.808,10.344,9.272,17.32,9.272h25.776c3.216,0,6.448-0.76,9.312-2.192l18.832-9.424
		c1.632-0.824,2.656-2.472,2.656-4.296v-32.088h16v32.088c0,7.92-4.408,15.056-11.496,18.608l-18.84,9.424
		C220.56,400.56,214.864,401.904,209.168,401.904z"/>
	<path style="fill:#000;" d="M312.552,329.904h-21.728c-2.432,0-4.856-0.24-7.224-0.72l-26.896-5.376
		c-9.696-1.944-16.728-10.528-16.728-20.408v-37.504h16V303.4c0,2.28,1.632,4.264,3.872,4.72l26.896,5.376
		c1.344,0.272,2.712,0.408,4.08,0.408h21.728c6.976,0,13.456-3.472,17.32-9.272l7.448-11.168l13.312,8.872l-7.448,11.168
		C336.344,323.768,324.896,329.904,312.552,329.904z"/>
	<path style="fill:#000;" d="M312.552,401.904h-25.776c-5.696,0-11.392-1.344-16.472-3.88l-18.84-9.424
		c-7.096-3.552-11.496-10.688-11.496-18.608v-32.088h16v32.088c0,1.832,1.024,3.48,2.664,4.296l18.832,9.424
		c2.864,1.44,6.096,2.192,9.312,2.192h25.776c6.976,0,13.456-3.472,17.32-9.272l7.448-11.168l13.312,8.872l-7.448,11.168
		C336.344,395.768,324.896,401.904,312.552,401.904z"/>
</g>
<g>
	<path style="fill:#000;" d="M68.12,168.32l-4.04,24.272c-4.888,29.312-18.968,48.24-43.08,57.88l-6.176,2.472l1.296,6.528
		C21.024,284,15.968,309,1.104,333.784l13.72,8.232c15.72-26.192,21.784-52.84,18.072-79.312
		C52.6,253.2,66.472,237.712,74.32,216.488l29.952,59.912l7.648,45.896l-7.864,118.048l-15.672,47.024l15.168,5.064l16.008-48
		l8.464-122.928l-8.16-48.912L68.12,168.32z"/>
	<path style="fill:#000;" d="M60.752,16.32l-9.56-12.832C21.56,25.6,4.824,61.472,0,113.152l15.936,1.488
		C20.304,67.72,34.968,35.56,60.752,16.32z"/>
	<path style="fill:#000;" d="M479.808,259.472l1.304-6.528l-6.176-2.472c-24.104-9.64-38.192-28.568-43.08-57.88l-4.048-24.264
		l-51,102l-8.888,51.176l8.064,120.928l16.4,50l15.16-5.064l-15.672-47.024l-7.864-118.048l7.648-45.896l29.952-59.912
		c7.864,21.224,21.72,36.712,41.424,46.216c-3.712,26.48,2.352,53.128,18.072,79.312l13.72-8.232
		C479.96,309.008,474.912,284.008,479.808,259.472z"/>
	<path style="fill:#000;" d="M480,114.64l15.928-1.488c-4.808-51.688-21.552-87.56-51.184-109.672l-9.56,12.832
		C460.976,35.552,475.64,67.72,480,114.64z"/>
	<path style="fill:#000;" d="M407.704,155.952l-15.472-4.104c-6.312,23.808-19.504,60.536-29.04,67.624
		c-14.296,10.64-39.304,16.832-58.232,14.488c-9.832-1.232-26.336-7.992-45.28-18.536c-2.288-1.272-3.712-3.72-3.712-6.376v-31.144
		v-0.008h-16v0.008v31.144v0.008c0,2.664-1.424,5.104-3.712,6.376c-18.936,10.544-35.448,17.304-45.288,18.536
		c-18.88,2.376-43.92-3.856-58.224-14.488c-9.536-7.088-22.728-43.808-29.04-67.624l-15.472,4.088
		c2.784,10.488,17.512,63.408,34.96,76.376c15.168,11.272,38.208,18.168,59.072,18.168c3.648,0,7.24-0.208,10.696-0.64
		c15.344-1.928,36.248-12.176,51.072-20.432c1.464-0.808,2.72-1.864,3.944-2.944c1.224,1.072,2.472,2.128,3.928,2.936
		c14.832,8.264,35.728,18.512,51.064,20.432c3.472,0.44,7.056,0.648,10.704,0.648c20.872,0,43.912-6.896,59.072-18.16
		C390.2,219.368,404.928,166.44,407.704,155.952z"/>
	<path style="fill:#000;" d="M69.992,135.168c9.856-11.28,14.864-25.312,16.808-31.856
		c34.448-19.472,48.136-57.096,48.712-58.728l-15.08-5.36c-0.128,0.36-12.92,35.544-44.12,51.56l-3.328,1.712l-0.824,3.648
		c-0.04,0.168-3.824,16.6-14.216,28.496L69.992,135.168z"/>
	<path style="fill:#000;" d="M224.336,49.912c-28.12-1.28-52.16-14.808-52.4-14.952l-7.952,13.88
		c1.112,0.64,27.52,15.592,59.616,17.056L224.336,49.912z"/>
	<path style="fill:#000;" d="M409.144,103.312c1.944,6.536,6.96,20.576,16.792,31.848l12.056-10.52
		c-10.304-11.8-14.192-28.344-14.232-28.512l-0.832-3.64l-3.304-1.704c-31.024-15.92-43.992-51.216-44.128-51.576l-15.072,5.376
		C361.008,46.224,374.696,83.84,409.144,103.312z"/>
	<path style="fill:#000;" d="M331.952,48.84l-7.968-13.872c-0.232,0.128-24.104,13.656-52.384,14.944l0.736,15.984
		C304.44,64.432,330.848,49.48,331.952,48.84z"/>
	<rect x="239.944" y="145.904" style="fill:#000;" width="16" height="16"/>
	<path style="fill:#000;" d="M352.384,458.488l-5.008-7.144c-0.8,0.56-19.584,13.92-26.992,36.008l15.168,5.096
		c5.68-16.928,20.768-27.816,21.008-27.992l0,0l0,0l0.016-0.016L352.384,458.488z"/>
	<path style="fill:#000;" d="M148.56,451.344l-9.2,13.096c0.16,0.112,15.336,11.024,21.024,28l15.168-5.08
		C168.152,465.264,149.36,451.904,148.56,451.344z"/>
</g>
<g>
</g>
<g>
</g>
<g>
</g>
<g>
</g>
<g>
</g>
<g>
</g>
<g>
</g>
<g>
</g>
<g>
</g>
<g>
</g>
<g>
</g>
<g>
</g>
<g>
</g>
<g>
</g>
<g>
</g>
</svg>
