<svg id="Layer_1" enable-background="new 0 0 512 512" height="60" viewBox="0 0 512 512" width="60" xmlns="http://www.w3.org/2000/svg"><g fill="#020202"><path d="m158.338 93.118h38.461c4.143 0 7.5-3.358 7.5-7.5s-3.357-7.5-7.5-7.5h-38.461c-4.143 0-7.5 3.358-7.5 7.5s3.357 7.5 7.5 7.5z"/><path d="m158.338 133.856h38.461c4.143 0 7.5-3.358 7.5-7.5s-3.357-7.5-7.5-7.5h-38.461c-4.143 0-7.5 3.358-7.5 7.5s3.357 7.5 7.5 7.5z"/><path d="m158.338 174.595h38.461c4.143 0 7.5-3.358 7.5-7.5s-3.357-7.5-7.5-7.5h-38.461c-4.143 0-7.5 3.358-7.5 7.5s3.357 7.5 7.5 7.5z"/><path d="m158.338 215.333h38.461c4.143 0 7.5-3.358 7.5-7.5s-3.357-7.5-7.5-7.5h-38.461c-4.143 0-7.5 3.358-7.5 7.5s3.357 7.5 7.5 7.5z"/><path d="m158.338 256.071h38.461c4.143 0 7.5-3.358 7.5-7.5s-3.357-7.5-7.5-7.5h-38.461c-4.143 0-7.5 3.358-7.5 7.5s3.357 7.5 7.5 7.5z"/><path d="m158.338 296.81h38.461c4.143 0 7.5-3.358 7.5-7.5s-3.357-7.5-7.5-7.5h-38.461c-4.143 0-7.5 3.358-7.5 7.5s3.357 7.5 7.5 7.5z"/><path d="m158.338 337.548h38.461c4.143 0 7.5-3.358 7.5-7.5s-3.357-7.5-7.5-7.5h-38.461c-4.143 0-7.5 3.358-7.5 7.5s3.357 7.5 7.5 7.5z"/><path d="m255.642 174.595h38.461c4.143 0 7.5-3.358 7.5-7.5s-3.357-7.5-7.5-7.5h-38.461c-4.143 0-7.5 3.358-7.5 7.5s3.358 7.5 7.5 7.5z"/><path d="m255.642 215.333h38.461c4.143 0 7.5-3.358 7.5-7.5s-3.357-7.5-7.5-7.5h-38.461c-4.143 0-7.5 3.358-7.5 7.5s3.358 7.5 7.5 7.5z"/><path d="m64.676 207.682c-4.143 0-7.5 3.358-7.5 7.5v19.527c0 4.142 3.357 7.5 7.5 7.5s7.5-3.358 7.5-7.5v-19.527c0-4.142-3.358-7.5-7.5-7.5z"/><path d="m95.851 207.682c-4.143 0-7.5 3.358-7.5 7.5v19.527c0 4.142 3.357 7.5 7.5 7.5s7.5-3.358 7.5-7.5v-19.527c0-4.142-3.357-7.5-7.5-7.5z"/><path d="m64.676 258.076c-4.143 0-7.5 3.358-7.5 7.5v19.527c0 4.142 3.357 7.5 7.5 7.5s7.5-3.358 7.5-7.5v-19.527c0-4.142-3.358-7.5-7.5-7.5z"/><path d="m95.851 258.076c-4.143 0-7.5 3.358-7.5 7.5v19.527c0 4.142 3.357 7.5 7.5 7.5s7.5-3.358 7.5-7.5v-19.527c0-4.142-3.357-7.5-7.5-7.5z"/><path d="m64.676 308.469c-4.143 0-7.5 3.358-7.5 7.5v19.528c0 4.142 3.357 7.5 7.5 7.5s7.5-3.358 7.5-7.5v-19.528c0-4.142-3.358-7.5-7.5-7.5z"/><path d="m95.851 308.469c-4.143 0-7.5 3.358-7.5 7.5v19.528c0 4.142 3.357 7.5 7.5 7.5s7.5-3.358 7.5-7.5v-19.528c0-4.142-3.357-7.5-7.5-7.5z"/><path d="m486.017 416.582c16.593-21.872 25.746-49.051 25.772-76.529l.097-100.093c.047-17.261-17.953-29.792-33.98-22.999l.092-40.599c.048-17.825-19.061-30.39-35.234-22.424-7.405-21.608-39.057-21.94-46.399-.016-15.94-7.917-35.118 4.434-35.166 22.098v69.086l-30.054-.009v-119.646c0-4.142-3.357-7.5-7.5-7.5h-41.273v-68.884c0-4.142-3.357-7.5-7.5-7.5s-7.5 3.358-7.5 7.5v68.883h-33.531v-72.959c0-4.142-3.357-7.5-7.5-7.5h-10.154v-29.991c0-4.142-3.357-7.5-7.5-7.5h-62.238c-4.143 0-7.5 3.358-7.5 7.5v29.991h-10.154c-4.143 0-7.5 3.358-7.5 7.5v39.011c0 10.303 16.621 9.082 15-1.179v-30.332h82.547v313.301h-82.305v-187.665c0-.644-.09-1.265-.242-1.861v-51.09c1.52-9.621-15-12.533-15-1.182v46.632h-89.805c-4.143 0-7.5 3.358-7.5 7.5v187.665h-16.604c-9.697 0-9.697 15 0 15h273.468c10.464 19.113 30.043 29.599 50.679 37.803 8.6 3.419 12.604 9.287 12.604 18.468v4.895h-6.204c-4.143 0-7.5 3.358-7.5 7.5v55.043c0 4.142 3.357 7.5 7.5 7.5h87.997c9.697 0 9.697-15 0-15h-80.497v-40.043h133.669v40.043h-13.209c-9.697 0-9.697 15 0 15h20.709c4.143 0 7.5-3.358 7.5-7.5v-55.043c0-4.142-3.357-7.5-7.5-7.5h-7.556l-.161-3.765c-.084-7.76 2.446-15.432 7.132-21.61zm-332.068-379.091v-22.491h47.238v22.491zm190.937 327.552c-10.126.928-19.818-6.864-20.572-17.193v-14.17c7.58 13.708 22.494 22.607 38.182 22.607 24.085 0 43.688-19.697 43.7-43.913.005-8.319-2.315-16.418-6.709-23.422-8.057-12.844-21.873-20.515-36.96-20.519-.006 0-.008 0-.014 0-20.929 0-38.466 14.878-42.712 34.666-4.632-6.743-12.387-11.174-21.157-11.174-14.154 0-25.67 11.535-25.67 25.714v22.944c-3.167-1.787-6.625-3.117-10.288-3.891l.025-48.549c13.953-2.964 24.965-14.033 27.911-28.06l143.837.042c1.458 6.855 4.911 13.167 10.087 18.258 5.123 5.039 11.442 8.404 18.279 9.832v48.383c-14.019 3.047-25.361 14.403-28.408 28.444h-89.531zm-11.072-52.689c.009-15.949 12.882-28.92 28.699-28.92h.01c9.893.003 18.96 5.045 24.257 13.49 2.893 4.61 4.419 9.95 4.416 15.443-.009 15.95-12.882 28.921-28.7 28.921-15.789 0-28.69-13.247-28.682-28.934zm-59.244 51.085c.079.384.154.772.239 1.151l-12.137-.003.006-12.316c5.299 1.995 9.571 6.053 11.892 11.168zm-11.844-103.363 12.326.004c-2.141 5.731-6.657 10.298-12.332 12.471l.006-12.47zm200.1.059v12.515c-2.863-1.063-5.504-2.739-7.761-4.959-2.232-2.195-3.921-4.767-5.002-7.559zm0 92.043v12.865h-12.832c2.233-5.874 6.973-10.627 12.832-12.865zm-8.915-185.737c5.025.166 9.103 4.598 9.088 9.883l-.156 68.811-18.893-.006.137-70.444c1.093-5.173 4.367-7.922 9.824-8.244zm-40.864-11.615c6.422-6.197 16.085-.842 16.064 7.197l-.287 83.102-18.757-.005.021-83.367c.006-2.634 1.057-5.094 2.959-6.927zm-36.847 21.23c.03-11.7 16.918-12.624 18.865-1.511l-.128 70.57-18.737-.006zm-60.054-43.105v112.141l-32.237-.01c-.001 0-.002 0-.003 0l-28.674-.008c-.001 0-.001 0-.002 0-4.141 0-7.498 3.355-7.5 7.496l-.047 90.708c-.001.042-.006.083-.006.126l-.007 22.388h-13.828v-232.841zm-277.156 52.676h82.305v180.165h-82.305zm320.148 256.33v-4.895c0-15.241-7.836-26.75-22.063-32.407-25.04-9.954-45.688-25.656-48.079-45.647-.442-3.697-1.021-7.602-1.021-11.875v-29.493c0-13.393 21.34-14.013 21.34 0v30.46c0 18.632 17.791 32.859 35.572 31.943h125.439c4.11 0 7.5-3.422 7.5-7.498l.037-132.891c.032-12.249 19.058-12.109 19.023.278l-.097 100.106c-.023 24.229-8.094 48.193-22.724 67.478-6.72 8.858-10.334 19.864-10.177 30.989.001.072.003.143.006.215l.138 3.237z"/></g></svg>