<svg id="Layer_5" enable-background="new 0 0 64 64" viewBox="0 0 64 64" width="80" height="80" xmlns="http://www.w3.org/2000/svg"><g><path d="m61 49h-2c-1.103 0-2 .897-2 2v2h-2.184c-.169-.474-.449-.889-.816-1.22v-.663c0-10.033-7.344-18.519-17.194-20.018l-.156-.624c2.252-.925 3.913-2.991 4.271-5.476h.079c2.206 0 4-1.794 4-4 0-.701-.197-1.351-.516-1.925l2.095-4.888c.279-.649.421-1.338.421-2.048 0-3.532-1.918-6.792-5.006-8.507-3.097-1.721-6.607-2.631-10.151-2.631h-1.296c-3.129 0-6.263.74-9.062 2.139l-.118.059c-2.693 1.347-4.367 4.055-4.367 7.067 0 .68.199 1.338.576 1.902l.77 1.155c-.224.526-.346 1.092-.346 1.678 0 1.37.679 2.661 1.828 3.591-.512.672-.828 1.501-.828 2.409 0 2.206 1.794 4 4 4h.08c.358 2.484 2.019 4.551 4.271 5.476l-.157.624c-9.85 1.499-17.194 9.984-17.194 20.017v.663c-.366.33-.647.746-.816 1.22h-2.184v-2c0-1.103-.897-2-2-2h-2c-1.103 0-2 .897-2 2v10c0 1.103.897 2 2 2h2c1.103 0 2-.897 2-2v-2h5 4 5v2h-12v2h46v-2h-12v-2h5 4 5v2c0 1.103.897 2 2 2h2c1.103 0 2-.897 2-2v-10c0-1.103-.897-2-2-2zm-56 12h-2v-10h2zm46.995-10h-3.995c-.024 0-.046.006-.07.007-.327-4.265-2.429-8.228-5.8-10.89.132-1.612.361-3.217.711-4.794l.002-.01c5.473 3.153 9.109 9.028 9.152 15.687zm-26.544-17.472c.572 3.144 3.32 5.472 6.549 5.472s5.977-2.328 6.549-5.472c.844.23 1.665.508 2.453.85l-.114.512c-.589 2.653-.888 5.378-.888 8.098 0 1.373.077 2.76.229 4.123l.654 5.889h-17.766l.654-5.889c.152-1.363.229-2.75.229-4.123 0-2.72-.299-5.444-.889-8.098l-.114-.512c.789-.341 1.61-.62 2.454-.85zm19.733 19.472h-2.289l-.679-6.111c-.143-1.289-.216-2.602-.216-3.901 0-.107.008-.214.009-.321 2.432 2.407 3.873 5.679 3.969 9.131-.356.328-.628.738-.794 1.202zm-23.184-10.012c0 1.299-.073 2.612-.217 3.902l-.678 6.11h-2.289c-.166-.464-.438-.874-.794-1.202.096-3.452 1.537-6.725 3.969-9.131.001.107.009.214.009.321zm-3 13.012v-1h26v1c0 .352.072.686.184 1h-26.368c.112-.314.184-.648.184-1zm22-33v-4c1.103 0 2 .897 2 2s-.897 2-2 2zm-20-2c0-1.103.897-2 2-2v4c-1.103 0-2-.897-2-2zm2.107-4h-.107c-.546 0-1.066.111-1.54.31-.922-.57-1.46-1.409-1.46-2.31 0-1.354 1.223-2.546 2.973-2.899l-.395-1.961c-1.181.238-2.191.767-2.97 1.468l-.368-.552c-.157-.234-.24-.508-.24-.791 0-2.25 1.25-4.271 3.262-5.277l.118-.059c2.522-1.262 5.347-1.929 8.167-1.929h1.296c3.205 0 6.379.823 9.181 2.379 2.453 1.363 3.976 3.953 3.976 6.759 0 .436-.087.86-.259 1.26l-1.774 4.14c-.583-.332-1.248-.538-1.967-.538v-.369c0-2.002-1.629-3.631-3.632-3.631-.336 0-.671.047-.997.14l-6.173 1.764c-.224.064-.456.096-.689.096-1.384 0-2.509-1.125-2.509-2.547 0-.66.268-1.307.734-1.774l1.973-1.972-1.414-1.414-1.974 1.973c-.85.852-1.319 1.984-1.319 3.225 0 .352.041.695.117 1.023-1.06.897-1.761 2.127-2.01 3.486zm1.893 7v-5.91c0-1.02.382-1.978 1.053-2.707.828.988 2.069 1.617 3.456 1.617.419 0 .835-.058 1.238-.173l6.172-1.764c1.023-.295 2.081.517 2.081 1.568v7.369c0 2.757-2.243 5-5 5h-4c-2.757 0-5-2.243-5-5zm5 7h4c.24 0 .477-.012.71-.036l.487 1.949.686.081c.238.028.467.079.702.116-.377 2.228-2.306 3.89-4.585 3.89s-4.208-1.662-4.585-3.891c.235-.037.464-.088.702-.116l.686-.081.487-1.949c.233.025.47.037.71.037zm-8.844 4.313.002.01c.351 1.577.58 3.182.711 4.794-3.371 2.661-5.473 6.624-5.8 10.889-.023 0-.045-.006-.069-.006h-3.995c.043-6.659 3.679-12.534 9.151-15.687zm-14.156 19.687h2v1c0 .352.072.686.184 1h-2.184zm5 2c-.552 0-1-.449-1-1v-2c0-.551.448-1 1-1h4c.552 0 1 .449 1 1v2c0 .551-.448 1-1 1zm29 4h-18v-2h18zm7-4c-.552 0-1-.449-1-1v-2c0-.551.448-1 1-1h4c.552 0 1 .449 1 1v2c0 .551-.448 1-1 1zm6.816 0c.112-.314.184-.648.184-1v-1h2v2zm6.184 4h-2v-10h2z"/><circle cx="28" cy="20" r="1"/><circle cx="36" cy="20" r="1"/><path d="m37 23h-2c0 1.103-.897 2-2 2h-4v2h4c2.206 0 4-1.794 4-4z"/></g></svg>