<svg id="Capa_1" enable-background="new 0 0 512 512" height="60" viewBox="0 0 512 512" width="60" xmlns="http://www.w3.org/2000/svg"><path d="m137.797 270.995c0-4.143-3.357-7.5-7.5-7.5s-7.5 3.357-7.5 7.5v14.9c0 4.143 3.357 7.5 7.5 7.5s7.5-3.357 7.5-7.5z"/><path d="m201.313 270.995c0-4.143-3.357-7.5-7.5-7.5s-7.5 3.357-7.5 7.5v14.9c0 4.143 3.357 7.5 7.5 7.5s7.5-3.357 7.5-7.5z"/><path d="m257.327 293.396c4.143 0 7.5-3.357 7.5-7.5v-14.9c0-4.143-3.357-7.5-7.5-7.5s-7.5 3.357-7.5 7.5v14.9c0 4.142 3.358 7.5 7.5 7.5z"/><path d="m137.797 331.597c0-4.143-3.357-7.5-7.5-7.5s-7.5 3.357-7.5 7.5v14.899c0 4.143 3.357 7.5 7.5 7.5s7.5-3.357 7.5-7.5z"/><path d="m201.313 331.597c0-4.143-3.357-7.5-7.5-7.5s-7.5 3.357-7.5 7.5v14.899c0 4.143 3.357 7.5 7.5 7.5s7.5-3.357 7.5-7.5z"/><path d="m249.827 346.496c0 4.143 3.357 7.5 7.5 7.5s7.5-3.357 7.5-7.5v-14.899c0-4.143-3.357-7.5-7.5-7.5s-7.5 3.357-7.5 7.5z"/><path d="m320.843 353.996c4.143 0 7.5-3.357 7.5-7.5v-14.899c0-4.143-3.357-7.5-7.5-7.5s-7.5 3.357-7.5 7.5v14.899c0 4.143 3.357 7.5 7.5 7.5z"/><path d="m384.358 353.996c4.143 0 7.5-3.357 7.5-7.5v-14.899c0-4.143-3.357-7.5-7.5-7.5s-7.5 3.357-7.5 7.5v14.899c0 4.143 3.358 7.5 7.5 7.5z"/><path d="m137.797 392.197c0-4.143-3.357-7.5-7.5-7.5s-7.5 3.357-7.5 7.5v14.9c0 4.143 3.357 7.5 7.5 7.5s7.5-3.357 7.5-7.5z"/><path d="m201.313 392.197c0-4.143-3.357-7.5-7.5-7.5s-7.5 3.357-7.5 7.5v14.9c0 4.143 3.357 7.5 7.5 7.5s7.5-3.357 7.5-7.5z"/><path d="m249.827 407.098c0 4.143 3.357 7.5 7.5 7.5s7.5-3.357 7.5-7.5v-14.9c0-4.143-3.357-7.5-7.5-7.5s-7.5 3.357-7.5 7.5z"/><path d="m313.343 407.098c0 4.143 3.357 7.5 7.5 7.5s7.5-3.357 7.5-7.5v-14.9c0-4.143-3.357-7.5-7.5-7.5s-7.5 3.357-7.5 7.5z"/><path d="m376.858 407.098c0 4.143 3.357 7.5 7.5 7.5s7.5-3.357 7.5-7.5v-14.9c0-4.143-3.357-7.5-7.5-7.5s-7.5 3.357-7.5 7.5z"/><path d="m130.297 445.299c-4.143 0-7.5 3.357-7.5 7.5v14.9c0 4.143 3.357 7.5 7.5 7.5s7.5-3.357 7.5-7.5v-14.9c0-4.143-3.358-7.5-7.5-7.5z"/><path d="m193.813 445.299c-4.143 0-7.5 3.357-7.5 7.5v14.9c0 4.143 3.357 7.5 7.5 7.5s7.5-3.357 7.5-7.5v-14.9c0-4.143-3.358-7.5-7.5-7.5z"/><path d="m249.827 467.699c0 4.143 3.357 7.5 7.5 7.5s7.5-3.357 7.5-7.5v-14.9c0-4.143-3.357-7.5-7.5-7.5s-7.5 3.357-7.5 7.5z"/><path d="m313.343 467.699c0 4.143 3.357 7.5 7.5 7.5s7.5-3.357 7.5-7.5v-14.9c0-4.143-3.357-7.5-7.5-7.5s-7.5 3.357-7.5 7.5z"/><path d="m376.858 467.699c0 4.143 3.357 7.5 7.5 7.5s7.5-3.357 7.5-7.5v-14.9c0-4.143-3.357-7.5-7.5-7.5s-7.5 3.357-7.5 7.5z"/><path d="m215.474 221.782c0-4.143-3.357-7.5-7.5-7.5h-126.948c-4.143 0-7.5 3.357-7.5 7.5v204.372c0 4.143 3.357 7.5 7.5 7.5s7.5-3.357 7.5-7.5v-196.872h119.447c4.143 0 7.501-3.357 7.501-7.5z"/><path d="m504.5 497h-76.025v-197.311c0-4.143-3.357-7.5-7.5-7.5h-31.795v-197.34h21.052c4.143 0 7.5-3.357 7.5-7.5v-41.463c0-4.145-3.406-7.5-7.5-7.5h-21.052v-18.407c0-11.017-8.963-19.979-19.98-19.979h-33.363c-4.143 0-7.5 3.357-7.5 7.5s3.357 7.5 7.5 7.5h33.363c2.746 0 4.979 2.233 4.979 4.979v18.407h-95.093v-18.407c0-2.745 2.233-4.979 4.979-4.979h21.784c4.143 0 7.5-3.357 7.5-7.5s-3.357-7.5-7.5-7.5h-21.784c-11.017 0-19.979 8.962-19.979 19.979v18.407h-220.855c-4.067 0-7.5 3.303-7.5 7.5v41.463c0 4.143 3.357 7.5 7.5 7.5h59.218v5.729c0 10.584 8.61 19.194 19.194 19.194h19.837v32.322h-25.775c-4.143 0-7.5 3.357-7.5 7.5v39.672c0 4.143 3.357 7.5 7.5 7.5h66.55c4.143 0 7.5-3.357 7.5-7.5v-39.672c0-4.143-3.357-7.5-7.5-7.5h-25.775v-32.322h19.837c10.583 0 19.193-8.61 19.193-19.194v-5.729h132.644v197.341h-32.29v-70.407c0-4.143-3.357-7.5-7.5-7.5h-50.404c-4.143 0-7.5 3.357-7.5 7.5s3.357 7.5 7.5 7.5h42.904v70.407c0 4.143 3.357 7.5 7.5 7.5h125.11v189.81h-324.948v-40.858c0-4.143-3.357-7.5-7.5-7.5s-7.5 3.357-7.5 7.5v40.858h-66.026c-4.143 0-7.5 3.357-7.5 7.5s3.357 7.5 7.5 7.5h497c4.143 0 7.5-3.357 7.5-7.5s-3.357-7.5-7.5-7.5zm-329.745-305.233h-51.55v-24.672h51.55zm-66.167-111.918 26.391-23.854 26.39 23.854zm-19.484-2.61-26.39-23.854h52.781zm65.357-23.853h52.78l-26.39 23.854zm72.263 2.609 26.391 23.854h-52.781zm65.358 23.854 26.391-23.854 26.395 23.854zm77.293 42.887-26.221 20.161v-40.322zm4.805 55.55-26.221-20.162 26.221-20.161zm-4.804 15.228-26.222 20.162v-40.324zm-21.418 35.388 26.222-20.162v40.326zm21.418 35.394-26.222 20.165v-40.329zm4.804-156.786-16.467-12.661h16.467zm9.656-27.661 18.895-17.076v17.076zm6.911-26.463-26.395 23.854-26.395-23.854zm-91.758 0-26.391 23.854-26.391-23.854zm-248.258 9.389 18.89 17.074h-18.89zm129.78 37.803c0 2.313-1.881 4.194-4.193 4.194h-54.674c-2.313 0-4.194-1.882-4.194-4.194v-5.729h63.062v5.729zm177.2 191.611 16.469-12.665v12.665z"/></svg>