<?xml version="1.0" encoding="iso-8859-1"?>
<!-- Generator: Adobe Illustrator 19.0.0, SVG Export Plug-In . SVG Version: 6.00 Build 0)  -->
<svg version="1.1" width="70" height="70" id="Capa_1" xmlns="http://www.w3.org/2000/svg" xmlns:xlink="http://www.w3.org/1999/xlink" x="0px" y="0px"
	 viewBox="0 0 512 512" style="enable-background:new 0 0 512 512;" xml:space="preserve">
<g>
	<g>
		<path fill="#898b96" d="M479.067,209.226l-31.961,6.332c-4.078,0.812-6.723,4.759-5.911,8.837c0.802,4.068,4.759,6.703,8.827,5.911
			c33.847-6.63,32.334-6.583,34.416-6.583c5.951,0,11.111,4.248,12.263,10.089l0.03,0.15c1.347,6.819-3.103,13.39-9.849,14.718
			l-123.587,24.477c3.326-8.596,5.521-17.654,6.462-26.952l50.777-10.059c4.078-0.812,6.723-4.769,5.911-8.837
			c-0.802-4.068-4.759-6.713-8.827-5.911l-47.471,9.398c-0.408-8.279-1.66-13.865-1.934-15.57
			c-1.623-8.186-8.857-14.127-17.193-14.127c-3.207,0,12.995-2.794-257.533,50.677c-4.078,0.802-6.723,4.759-5.911,8.827
			c0.802,4.068,4.759,6.713,8.827,5.911l254.116-50.336c1.473-0.26,2.691,0.683,2.946,1.974c1.557,10.029,2.737,18.277,0.751,31.13
			c-3.46,22.462-15.54,42.862-33.414,56.638c-13.502-33.68-30.082-30.494-37.412-12.835c-5.04,12.153-11.803,23.505-20.018,33.704
			l-6.082,1.202c-0.741-6.883-2.695-13.576-5.751-19.658c-4.3-8.532-16.656-8.006-20.289,0.751
			c-1.613,3.897-3.717,7.595-6.232,10.961l-19.217-32.282c-4.333-7.265-14.753-7.277-19.147-0.14
			c-3.236,5.24-7.023,11.492-10.62,18.095c-1.994,3.637-0.651,8.206,2.996,10.19c3.637,1.994,8.206,0.651,10.19-2.986
			c2.284-4.178,4.669-8.246,6.923-11.993l20.86,35.037c0.128,0.141,1.564,3.475,5.641,4.078c2.244,0.331,4.509-0.361,6.172-1.884
			c4.856-4.45,9.003-9.624,12.284-15.229c2.546,9.322,1.931,19.725-2.234,28.665c-3.344,7.165,5.258,13.968,11.442,9.097
			c35.182-27.597,46.027-60.773,48.202-64.323c10.406,12.492,22.44,46.763,7.955,78.53c-2.912,6.379,3.771,12.931,10.099,9.889
			c11.823-5.711,22.513-13.756,31.35-23.535c-0.992,13.015-10.059,26.581-22.904,34.145H183.04
			c-9.146-13.65-12.88-32.859-5.37-56.358c1.252-3.958-0.932-8.176-4.889-9.438c-3.958-1.252-8.176,0.932-9.438,4.889
			c-1.373,4.348-2.455,8.566-3.236,12.744c-37.706,7.049-43.935,9.779-58.081,9.779c-42.141,0-78.671-30.047-86.876-71.467
			l-0.07-0.371c-0.276-1.168,0.479-2.653,1.964-2.946l49.875-9.879c4.078-0.802,6.723-4.759,5.911-8.827
			c-0.802-4.078-4.759-6.713-8.827-5.911l-49.875,9.879c-9.248,1.823-15.685,10.836-13.796,20.62l0.08,0.361
			c9.588,48.423,52.32,83.57,101.615,83.57c16.083,0,24.57-3.284,56.538-9.178c0.014,11.511,2.638,22.915,7.393,32.803H88.394
			c-10.957,0-19.871,8.914-19.871,19.871v42.415c0,10.957,8.914,19.871,19.871,19.871h22.829v16.532
			c0,4.151,3.363,7.514,7.514,7.514h274.525c4.151,0,7.514-3.363,7.514-7.514V477.83h22.829c10.957,0,19.871-8.914,19.871-19.871
			v-42.415c0-10.957-8.914-19.871-19.871-19.871h-75.554c11.431-12.848,17.774-30.51,13.79-46.8
			c-2.226-9.197-14.17-11.69-19.868-4.048c-4.418,5.941-9.598,11.312-15.349,15.93c2.521-13.267,1.972-26.676-1.092-39.776
			c3.17-1.542,18.41-13.103,29.316-30.819l134.948-26.731C502.662,260.874,512,249.523,512,236.418
			C512,218.979,496.17,205.845,479.067,209.226z M88.394,462.801c-2.67,0-4.842-2.172-4.842-4.842v-42.415
			c0-2.67,2.172-4.842,4.842-4.842h160.091v52.1C231.226,462.801,106.749,462.801,88.394,462.801z M385.748,486.847H126.252v-9.017
			h259.497V486.847z M423.606,410.701L423.606,410.701c2.67,0,4.842,2.172,4.842,4.842v42.415c0,2.67-2.172,4.842-4.842,4.842
			c-17.516,0-143.289,0-160.091,0v-52.1H423.606z"/>
	</g>
</g>
<g>
	<g>
		<path fill="#898b96" d="M336.857,68.087c-2.683-3.167-7.424-3.559-10.59-0.875l-22.671,19.213c-18.036-14.383-44.913-9.919-57.178,9.874
			c-39.912,0.343-62.635,47.694-36.087,79.018c26.512,31.285,76.976,16.733,83.865-22.642c21.502-8.838,30.366-34.603,19.118-54.785
			l22.67-19.213C339.148,75.994,339.54,71.252,336.857,68.087z M285.423,139.796c-3.126,0.814-5.382,3.533-5.605,6.756
			c-2.046,29.739-39.135,41.34-58.024,19.051c-19.1-22.537-0.979-56.946,28.307-54.118c3.221,0.305,6.268-1.469,7.583-4.418
			c5.771-12.943,21.754-18.086,34.074-10.609l-46.391,39.316c-5.348,4.532-2.089,13.247,4.862,13.247
			c4.985,0,2.958-1.03,51.245-41.099C306.825,121.29,299.151,136.222,285.423,139.796z"/>
	</g>
</g>
<g>
	<g>
		<path fill="#898b96" d="M185.138,18.799c-17.187,0-31.17,13.983-31.17,31.17c0,17.187,13.983,31.17,31.17,31.17
			c17.188,0,31.171-13.983,31.171-31.17C216.309,32.782,202.326,18.799,185.138,18.799z M185.138,66.109
			c-8.9,0-16.141-7.242-16.141-16.141s7.242-16.141,16.141-16.141c8.901,0,16.142,7.242,16.142,16.141
			S194.038,66.109,185.138,66.109z"/>
	</g>
</g>
<g>
	<g>
		<path fill="#898b96" d="M43.066,185.044c-17.187,0-31.17,13.983-31.17,31.17s13.983,31.17,31.17,31.17s31.17-13.983,31.17-31.17
			S60.253,185.044,43.066,185.044z M43.067,232.355c-8.899,0-16.141-7.242-16.141-16.141s7.242-16.141,16.141-16.141
			s16.141,7.241,16.141,16.141S51.966,232.355,43.067,232.355z"/>
	</g>
</g>
<g>
	<g>
		<path fill="#898b96" d="M166.098,130.595c-13.576-19.056-43.563-44.776-68.912-49.395L81.907,59.739c10.032-9.922,11.578-25.749,3.246-37.452
			C70.468,1.668,37.98,8.478,33.073,33.569C15.408,31.084,0,44.81,0,62.294c0,21.265,22.486,35.564,41.83,25.99l17.714,24.868
			c-2.344,24.054,7.696,58.181,21.712,77.869c20.382,28.612,56.272,40.75,80.614,23.425
			C183.517,199.029,188.831,162.547,166.098,130.595z M72.9,85.439c-3.256,2.324-5.961,5.4-8.085,9.198l-14.999-21.06
			c-1.45-2.025-3.748-3.156-6.122-3.156c-3.529,0-5.017,2.096-6.593,3.236c-9.341,6.633-22.072-0.178-22.072-11.362
			c0-11.074,12.256-17.768,21.561-11.742c5.72,3.68,12.983-1.529,11.372-8.105c-2.139-8.882,4.566-17.313,13.546-17.313
			c14.323,0,19.561,19.28,6.512,26.34c-4.026,2.108-5.255,7.313-2.615,11.001l13.977,19.628c-2.324,0.812-4.499,1.924-6.472,3.336
			C72.9,85.439,72.9,85.439,72.9,85.439z M93.489,182.304c-17.35-24.384-26.76-74.056-11.863-84.632
			c7.779-5.551,22.557,0.605,31.079,5.32c15.389,8.496,31.61,22.924,41.149,36.32c7.695,10.811,11.933,23.224,11.933,34.977
			C165.787,214.81,119.374,218.629,93.489,182.304z"/>
	</g>
</g>
<g>
</g>
<g>
</g>
<g>
</g>
<g>
</g>
<g>
</g>
<g>
</g>
<g>
</g>
<g>
</g>
<g>
</g>
<g>
</g>
<g>
</g>
<g>
</g>
<g>
</g>
<g>
</g>
<g>
</g>
</svg>
