<?xml version="1.0" encoding="UTF-8"?>
<svg xmlns="http://www.w3.org/2000/svg" id="Layer_32" data-name="Layer 32" viewBox="0 0 64 64" width="70" height="70"><path d="M4.293,40.707a1,1,0,0,0,1.371.041L12,35.115V62a1,1,0,0,0,1,1H51a1,1,0,0,0,1-1V35.115l6.336,5.633a1,1,0,0,0,1.371-.041l3-3a1,1,0,0,0-.052-1.463L51,26.143V7h1a1,1,0,0,0,1-1V2a1,1,0,0,0-1-1H41a1,1,0,0,0-1,1V6a1,1,0,0,0,1,1h1V18.343l-9.345-8.1a1,1,0,0,0-1.31,0l-30,26a1,1,0,0,0-.052,1.463ZM26,49H18V43h8Zm-8,2h8V61H18ZM50,61H28V42a1,1,0,0,0-1-1H17a1,1,0,0,0-1,1V61H14V33.337l18-16,18,16ZM47.374,23H49v1.41ZM44,11h5v2H44Zm0,4h5v2H44ZM42,3h9V5H42Zm7,4V9H44V7ZM44,19h5v2H45.066L44,20.076ZM32,12.323,60.533,37.052,58.96,38.626l-26.3-23.375a1,1,0,0,0-1.328,0L5.04,38.626,3.467,37.052Z"/><path d="M25,31a7,7,0,1,0,7-7A7.008,7.008,0,0,0,25,31Zm6-4.9V30H27.1A5.016,5.016,0,0,1,31,26.1ZM27.1,32H31v3.9A5.016,5.016,0,0,1,27.1,32ZM33,35.9V32h3.9A5.016,5.016,0,0,1,33,35.9ZM36.9,30H33V26.1A5.016,5.016,0,0,1,36.9,30Z"/><path d="M30,42V52a1,1,0,0,0,1,1H47a1,1,0,0,0,1-1V42a1,1,0,0,0-1-1H31A1,1,0,0,0,30,42Zm2,6h6v3H32Zm8,3V48h6v3Zm6-5H40V43h6Zm-8-3v3H32V43Z"/></svg>
