<svg viewBox="0 0 512 512" width="70" height="70" xmlns="http://www.w3.org/2000/svg"><path fill="#898b96" d="m70 346c-5.519531 0-10 4.480469-10 10s4.480469 10 10 10 10-4.480469 10-10-4.480469-10-10-10zm0 0"/><path fill="#898b96" d="m482 80h-32.484375c-.167969-38.148438-16.289063-80-53.515625-80-16.300781 0-25.28125 6.46875-34.492188 13.464844-.078124.054687-.160156.113281-.238281.175781l-52.375 40.53125c-10.699219-9.199219-25.5625-14.171875-42.894531-14.171875-16.3125 0-30.578125 4.488281-41.148438 12.777344-20.261718-15.675782-47.121093-36.460938-54.734374-42.347656-8.816407-6.824219-19.390626-10.429688-30.578126-10.429688-37.402343 0-53.339843 42.152344-53.511718 80h-56.027344c-16.542969 0-30 13.457031-30 30v80c0 5.523438 4.476562 10 10 10h10v282c0 16.542969 13.457031 30 30 30h406c16.648438 0 36-13.105469 36-30v-282h10c5.523438 0 10-4.476562 10-10v-80c0-16.542969-13.457031-30-30-30zm-108.519531-50.519531c6.058593-4.589844 11.410156-9.480469 22.519531-9.480469 26.929688 0 35.226562 42.128906 33.207031 69.234375-1.976562 26.761719-12.417969 46.828125-25.976562 49.9375-11.566407 2.644531-18.542969-.910156-27.632813-6.363281l-51.71875-30.386719c.226563-.804687.429688-1.609375.609375-2.421875h31.511719c5.523438 0 10-4.476562 10-10s-4.476562-10-10-10h-31.46875c-.753906-3.445312-1.902344-6.789062-3.433594-9.984375zm17.453125 203.488281-27.34375-7.328125c-2.5625-.6875-5.292969-.328125-7.589844 1-2.296875 1.324219-3.972656 3.511719-4.660156 6.070313l-7.859375 29.347656-62.359375-123.433594c12.1875-2.304688 22.539062-7.464844 30.253906-15.058594zm-169.214844-108.359375c7.601562 7.007813 17.589844 11.78125 29.175781 13.988281l-62.371093 123.460938-7.863282-29.347656c-1.429687-5.332032-6.914062-8.5-12.246094-7.070313l-26.945312 7.21875zm44.28125 28.4375 20 39.589844v299.363281h-40v-299.363281zm39.609375-63.046875c0 15.023438-12.820313 29.851562-39.226563 30h-.769531c-27.046875-.144531-39.246093-15.394531-39.222656-29.988281.015625-15.082031 12.882813-30.011719 39.609375-30.011719 26.878906 0 39.628906 15.003906 39.609375 30zm-166.070313-70c6.714844 0 13.058594 2.160156 18.347657 6.253906 12.875 9.960938 40.441406 31.292969 54.046875 41.816406-2.019532 3.769532-3.503906 7.785157-4.429688 11.929688h-31.503906c-5.523438 0-10 4.476562-10 10s4.476562 10 10 10h31.496094c.316406 1.417969.691406 2.820312 1.136718 4.203125-.597656.351563 6.335938-3.722656-48.855468 28.707031-.050782.035156-.101563.070313-.15625.105469l-.003906-.011719c-8.644532 5.152344-15.496094 8.867188-27.292969 6.167969-13.558594-3.105469-24.003907-23.179687-25.988281-49.941406-2.015626-27.082031 6.265624-69.230469 33.203124-69.230469zm-119.539062 90c0-5.515625 4.484375-10 10-10h57.394531c4.53125 31.742188 19.585938 53.882812 40.464844 58.667969 25.613281 5.855469 39.179687-7.832031 56.179687-16.8125l-28.277343 38.144531h-135.761719zm20 372v-282h100.933594l-32.605469 43.984375c-2.535156 3.417969-2.628906 8.0625-.234375 11.582031 2.390625 3.515625 6.75 5.136719 10.855469 4.03125l44.980469-12.050781 12.050781 44.980469c1.074219 4.003906 4.507812 6.933594 8.628906 7.359375 4.136719.421875 8.085937-1.738281 9.957031-5.4375l31.433594-62.222657v259.773438h-176c-5.515625 0-10-4.484375-10-10zm432 0c0 3.859375-8.734375 10-16 10h-150v-259.773438l31.433594 62.222657c1.714844 3.390625 5.183594 5.492187 8.925781 5.492187 4.523437 0 8.488281-3.035156 9.660156-7.414062l12.050781-44.980469 44.980469 12.054687c4.09375 1.097657 8.433594-.503906 10.832031-4 2.398438-3.492187 2.335938-8.117187-.15625-11.542968l-32.039062-44.058594h80.3125zm20-302h-114.855469l-29.316406-40.3125 17.386719 10.214844c12.984375 8.230468 25.714844 12.597656 42.480468 8.765625 20.878907-4.785157 35.9375-26.929688 40.453126-58.667969h33.851562c5.515625 0 10 4.484375 10 10zm0 0"/><path fill="#898b96" d="m70 386c-5.523438 0-10 4.476562-10 10v66c0 5.523438 4.476562 10 10 10s10-4.476562 10-10v-66c0-5.523438-4.476562-10-10-10zm0 0"/></svg>