<svg id="Layer_5" enable-background="new 0 0 64 64" height="512" viewBox="0 0 64 64" width="512" xmlns="http://www.w3.org/2000/svg"><path d="m44.657 18.586h2v2.828h-2z" transform="matrix(.707 -.707 .707 .707 -.77 38.142)"/><path d="m48.364 21.293-1.414 1.414 4.231 4.231.521-.1c1.571-.302 3.039-1.024 4.246-2.089l-1.323-1.5c-.808.713-1.766 1.229-2.795 1.508z"/><path d="m61.742 15.673c.811-.812 1.258-1.891 1.258-3.038 0-.549-.104-1.086-.308-1.596l-2.935-7.338c-.656-1.64-2.221-2.701-3.988-2.701h-.403c-1.147 0-2.226.447-3.038 1.259l-2.328 2.327-2-2-13.414 13.414 4.739 4.739-12.325 3.506v4.755h20.586l2 2h.414c7.168 0 13-5.832 13-13v-.414l-1.586-1.586zm-8-12c.434-.434 1.01-.673 1.623-.673h.403c.944 0 1.781.566 2.132 1.443l2.935 7.338c.11.274.165.561.165.854 0 .604-.245 1.196-.672 1.624l-.328.327-8.586-8.586zm-5.742 1.741 1.586 1.586-10.586 10.586-1.586-1.586zm-19 21.586v-1.245l11.944-3.397 4.642 4.642zm21.407 1.992-9.993-9.992 10.586-10.586 9.993 9.993c-.21 5.742-4.844 10.375-10.586 10.585z"/><path d="m22 18h-5v-1c0-3.859 3.14-7 7-7h5v1c0 3.859-3.14 7-7 7z" fill="#f0bc5e"/><path d="m19 27h-5c-3.86 0-7-3.141-7-7v-1h5c3.86 0 7 3.141 7 7z" fill="#f0bc5e"/><path d="m17 11h2v19h-2z"/><path d="m19 11h-9c-4.962 0-9-4.037-9-9v-1h9c4.962 0 9 4.037 9 9z" fill="#f0bc5e"/><path d="m18 45c-1.103 0-2-.897-2-2v-2h2c1.103 0 2 .897 2 2h2c0-1.859-1.28-3.411-3-3.858v-2.142h-2v2h-3v4c0 2.206 1.794 4 4 4 1.103 0 2 .897 2 2v2h-2c-1.103 0-2-.897-2-2h-2c0 1.859 1.28 3.411 3 3.858v2.142h2v-2h3v-4c0-2.206-1.794-4-4-4z"/><path d="m18 63c-9.374 0-17-7.626-17-17s7.626-17 17-17 17 7.626 17 17-7.626 17-17 17zm0-29c-6.617 0-12 5.383-12 12s5.383 12 12 12 12-5.383 12-12-5.383-12-12-12z" fill="#f0bc5e"/><path d="m18 59c-7.168 0-13-5.832-13-13s5.832-13 13-13 13 5.832 13 13-5.832 13-13 13zm0-24c-6.065 0-11 4.935-11 11s4.935 11 11 11 11-4.935 11-11-4.935-11-11-11z"/><path d="m25 45h2v2h-2z"/><path d="m9 45h2v2h-2z"/></svg>