<?xml version="1.0"?>
<svg xmlns="http://www.w3.org/2000/svg" viewBox="0 0 512 512" width="70" height="70"><g id="Out_line" data-name="Out line"><path fill="#898b96" d="M480.58447,208.94043a210.14156,210.14156,0,0,0-33.38427-55.7749l-10.03711-12.04395,12.292-10.24316,10.03662,12.04394a226.10881,226.10881,0,0,1,35.92383,60.01514Z"/><path fill="#898b96" d="M107.76562,218.63477,92.6582,213.36523a225.77978,225.77978,0,0,1,39.85059-70.44287l3.37012-4.04394,12.291,10.24316-3.37012,4.04395A209.84916,209.84916,0,0,0,107.76562,218.63477Z"/><path fill="#898b96" d="M141.83984,219.08447l-14.76269-6.16894a194.76638,194.76638,0,0,1,23.853-41.71533l12.80078,9.59863A178.74576,178.74576,0,0,0,141.83984,219.08447Z"/><path fill="#898b96" d="M473.4209,338.06055l-15.46-4.1211A178.63076,178.63076,0,0,0,464,287.95312h16A194.62965,194.62965,0,0,1,473.4209,338.06055Z"/><path fill="#898b96" d="M450.16016,219.08447A178.74576,178.74576,0,0,0,428.269,180.79883l12.80078-9.59863a194.76638,194.76638,0,0,1,23.853,41.71533Z"/><path fill="#898b96" d="M496,400v32c0,19.1-21.44,35.45-62,47.28-36.97,10.78-85.98,16.72-138,16.72s-101.03-5.93994-138-16.72C117.44,467.45,96,451.1,96,432v-8h16v8c0,20.04,70,48,184,48s184-27.96,184-48v-5.47c-10.43,7.87988-25.85,14.86987-46,20.75-36.97,10.78-85.98,16.72-138,16.72-8.11,0-16.28-.15-24.29-.43994l.58-15.99C280.1,447.86,288.08,448,296,448c114,0,184-27.96,184-48,0-8.51-13.02-18.5-34.82-26.73l5.64-14.97c24.97,9.41992,39.69,20.73,43.91,33.7A25.59528,25.59528,0,0,1,496,400Z"/><path fill="#898b96" d="M410.33,183.89l-2.74-3.28a36.84444,36.84444,0,0,0-17.02-25.84,179.371,179.371,0,0,0-69.46-25.02l-2.22,15.85a163.507,163.507,0,0,1,63.29,22.79,20.63713,20.63713,0,0,1,0,35.15,163.88661,163.88661,0,0,1-96.62,24.10986L311.43,162.97a7.9971,7.9971,0,0,0-1.08-7.83l-104-136-12.7,9.72L294.88,161.25l-25.79,64.49h-.01A166.08828,166.08828,0,0,1,248,220.77V168H232v79.2A40.0791,40.0791,0,0,1,200,208V184a8.00812,8.00812,0,0,0-2.34-5.66l-3.72-3.71A87.98587,87.98587,0,0,1,168,112V72H152V97.8999L86.15,18.88,73.85,29.12l78.8,94.55993a103.6471,103.6471,0,0,0,28.55,60.79A162.522,162.522,0,0,0,157.11,224H152a8.00792,8.00792,0,0,0-5.66,2.34L100.69,272H16v16h88a8.008,8.008,0,0,0,5.66-2.34009L155.31,240h20.24a68.788,68.788,0,0,1-19.83,40.97L146.34,290.34a8.00579,8.00579,0,0,0,3.92,13.47009l72,16A7.86786,7.86786,0,0,0,224,320h40a8,8,0,0,1,0,16H224.88l-55.14-12.25-3.48,15.62,56,12.44006A7.86786,7.86786,0,0,0,224,352h56a8,8,0,0,1,0,16H224.88l-55.14-12.25-3.48,15.62,56,12.44006A7.86786,7.86786,0,0,0,224,384h40a8,8,0,0,1,0,16H224.88l-55.14-12.25-3.48,15.62,56,12.44006A7.86786,7.86786,0,0,0,224,416h24a8,8,0,0,1,0,16H224.88L154.7,416.3999,91.58,384.84A8.08257,8.08257,0,0,0,88,384H16v16H86.11l62.31,31.15991a8.23715,8.23715,0,0,0,1.84.65015l72,16A7.86786,7.86786,0,0,0,224,448h24a24.03189,24.03189,0,0,0,24-24,23.71228,23.71228,0,0,0-1.7-8.8501A23.87061,23.87061,0,0,0,281.87,408h75.81a79.94064,79.94064,0,0,0,69.86-41.11,162.5433,162.5433,0,0,0-17.21-183ZM174.69,224A144.08132,144.08132,0,0,1,184,207.6v.4a55.40633,55.40633,0,0,0,2.45,16.38A7.94937,7.94937,0,0,0,184,224ZM413.56,359.12A63.96546,63.96546,0,0,1,357.68,392H288a23.71228,23.71228,0,0,0-1.7-8.8501,23.989,23.989,0,0,0,0-46.29992A23.7112,23.7112,0,0,0,288,328a24.03189,24.03189,0,0,0-24-24H224.88l-56.93-12.65a84.5536,84.5536,0,0,0,23.92-54.75A56.01151,56.01151,0,0,0,240,264a7.99786,7.99786,0,0,0,8-8V237.43994a179.78144,179.78144,0,0,0,142.57-20.28A36.69264,36.69264,0,0,0,404.21,202.11,145.67687,145.67687,0,0,1,421.28,233a67.28207,67.28207,0,0,1-13.94,11.41992,212.97435,212.97435,0,0,1-42.39,20.01l5.2,15.14014a228.45651,228.45651,0,0,0,45.57-21.53,81.45611,81.45611,0,0,0,11.2-8.26,145.72725,145.72725,0,0,1,5.05,35.83,260.3033,260.3033,0,0,1-66.12,28.78l4.3,15.42005a275.61685,275.61685,0,0,0,60.88-25.12012A146.78643,146.78643,0,0,1,413.56,359.12Z"/><path fill="#898b96" d="M320.71436,338.8252l-1.42872-15.93653c5.16895-.46338,10.39209-1.08984,15.52344-1.8623l2.38184,15.82129C331.74463,337.668,326.20117,338.333,320.71436,338.8252Z"/><path fill="#898b96" d="M320.87012,290.57471l-1.74024-15.90528c5.14795-.56347,10.33594-1.3247,15.41846-2.2622l2.90332,15.73437C331.98535,289.1499,326.40625,289.96875,320.87012,290.57471Z"/></g></svg>
