<?xml version="1.0" encoding="UTF-8"?>
<svg xmlns="http://www.w3.org/2000/svg" id="Layer_32" data-name="Layer 32" viewBox="0 0 64 64" width="70" height="70"><path d="M39.308,9.922,44.8,2.6a1,1,0,0,0-1.247-1.495L38.584,3.59c-.272-.814-.6-1.8-.631-1.893a1,1,0,0,0-1.475-.55L32,3.833,27.523,1.147a1,1,0,0,0-1.476.55c-.03.092-.359,1.078-.631,1.893L20.447,1.105A1,1,0,0,0,19.2,2.6l5.492,7.322L4.276,31.31a1,1,0,0,0,.941,1.667L9,32.136V62a1,1,0,0,0,1,1H54a1,1,0,0,0,1-1V32.031l3.758.939a1,1,0,0,0,.966-1.66ZM25.553,5.9a1,1,0,0,0,1.395-.579c.254-.76.452-1.354.605-1.824.384.237.855.519,1.432.865l2.5,1.5a1,1,0,0,0,1.03,0l2.5-1.5c.577-.346,1.048-.628,1.432-.865.153.47.351,1.064.6,1.824a1,1,0,0,0,1.4.579l2.211-1.106L37.5,9h-11L23.342,4.789ZM40,48h5v3H40Zm0,5h2v3H40Zm0,5h5v3H40Zm4-2V53h4v3Zm6-3h3v3H50Zm-3-2V48h6v3Zm3-5V43h3v3Zm-2,0H44V43h4Zm-6,0H39.931a7.951,7.951,0,0,0-1.013-3H42Zm-4,1V61H26V47a6,6,0,0,1,12,0ZM11,48h6v3H11Zm13,0v3H19V48Zm0,8H22V53h2ZM11,53h3v3H11Zm5,0h4v3H16Zm8,5v3H19V58Zm.069-12H22V43h3.082A7.951,7.951,0,0,0,24.069,46ZM20,46H16V43h4Zm-6,0H11V43h3ZM11,58h6v3H11Zm36,3V58h6v3Zm6-20H37.274a7.954,7.954,0,0,0-10.548,0H11V31.691l2-.444V36a1,1,0,0,0,1.781.625l3.024-3.78,2.3,4.6a1.042,1.042,0,0,0,1.79,0L24,33.236l1.105,2.211a1,1,0,0,0,1.6.26L29.8,32.612l2.341,3.9a1.04,1.04,0,0,0,1.714,0l2.341-3.9,3.095,3.095A1,1,0,0,0,40.98,35.2l.548-2.736,3.659,5.121A1,1,0,0,0,46,38a1,1,0,0,0,.99-.858l.658-4.611L49.2,34.6a1,1,0,0,0,1.77-.358l.758-3.029L53,31.531ZM51.242,29.03a1,1,0,0,0-1.212.728l-.491,1.961L47.8,29.4a1,1,0,0,0-1.79.458l-.647,4.53-3.55-4.969a1,1,0,0,0-1.793.385l-.634,3.168-2.679-2.679a1,1,0,0,0-1.564.192L33,34.057l-2.143-3.572a1,1,0,0,0-.735-.477,1.014,1.014,0,0,0-.829.285l-3.019,3.019L24.9,30.553a1.042,1.042,0,0,0-1.79,0L21,34.764,18.9,30.553a1,1,0,0,0-.79-.547A.924.924,0,0,0,18,30a1,1,0,0,0-.781.375L15,33.149V30a1,1,0,0,0-1.217-.977L8,30.31,26.428,11H37.572l18.32,19.192Z"/></svg>
