<svg id="Layer_5" enable-background="new 0 0 64 64" height="512" viewBox="0 0 64 64" width="512" xmlns="http://www.w3.org/2000/svg"><path d="m22 53h-4c-2.206 0-4-1.794-4-4h2c0 1.103.897 2 2 2h2v-2c0-1.103-.897-2-2-2-2.206 0-4-1.794-4-4v-4h4c2.206 0 4 1.794 4 4h-2c0-1.103-.897-2-2-2h-2v2c0 1.103.897 2 2 2 2.206 0 4 1.794 4 4z"/><path d="m17 37h2v3h-2z"/><path d="m17 52h2v3h-2z"/><path d="m18 63c-9.374 0-17-7.626-17-17s7.626-17 17-17 17 7.626 17 17-7.626 17-17 17zm0-29c-6.617 0-12 5.383-12 12s5.383 12 12 12 12-5.383 12-12-5.383-12-12-12z" fill="#f0bc5e"/><path d="m18 59c-7.168 0-13-5.832-13-13s5.832-13 13-13 13 5.832 13 13-5.832 13-13 13zm0-24c-6.065 0-11 4.935-11 11s4.935 11 11 11 11-4.935 11-11-4.935-11-11-11z"/><path d="m25 45h2v2h-2z"/><path d="m9 45h2v2h-2z"/><path d="m41.707 31.707-1.414-1.414 13.707-13.707 3.318 3.318 2.48-15.702-15.702 2.48 3.318 3.318-19.707 19.707-1.414-1.414 18.293-18.293-4.682-4.682 22.298-3.52-3.52 22.298-4.682-4.682z"/><path d="m37.586 32h2.828v2h-2.828z" transform="matrix(.707 -.707 .707 .707 -11.912 37.243)"/><path d="m34.586 35h2.828v2h-2.828z" transform="matrix(.707 -.707 .707 .707 -14.912 36)"/><path d="m63.216 49.217-15.297-2.55 4.167-4.167-3.379-3.379c-.378-.377-1.036-.377-1.414 0l-8.293 8.293-4.414-4.414 8.464-8.464c2.729-2.729 7.17-2.729 9.899 0l3.55 3.55 4.167-4.167z" fill="#f0bc5e"/><path d="m21 29.414-4.414-4.414 8.293-8.293c.188-.189.292-.44.292-.707s-.104-.518-.292-.707l-3.379-3.379-4.167 4.167-2.55-15.297 15.298 2.549-4.167 4.167 3.55 3.55c2.729 2.729 2.729 7.17 0 9.899z" fill="#f0bc5e"/><path d="m32.707 29.707-1.414-1.414 1.414-1.414 1.414 1.414zm2.829-2.829-1.414-1.414 1.414-1.414 1.414 1.414zm2.828-2.828-1.414-1.414 1.343-1.343 1.414 1.414z"/><path d="m44.707 23.707-1.414-1.414 1.414-1.414 1.414 1.414zm2.829-2.829-1.414-1.414 1.414-1.414 1.414 1.414zm2.828-2.828-1.414-1.414 1.343-1.343 1.414 1.414z"/></svg>