<svg id="Capa_1" enable-background="new 0 0 512 512" width="70" height="70" viewBox="0 0 512 512" xmlns="http://www.w3.org/2000/svg"><g><path d="m511.208 124.146-30-60c-1.27-2.541-3.867-4.146-6.708-4.146h-145.365l-27.927-55.854c-1.27-2.541-3.867-4.146-6.708-4.146h-257c-2.841 0-5.438 1.605-6.708 4.146l-30 60c-.521 1.042-.792 2.189-.792 3.354v437c0 4.142 3.357 7.5 7.5 7.5h497c4.143 0 7.5-3.358 7.5-7.5v-377c0-1.165-.271-2.312-.792-3.354zm-41.343-49.146 22.5 45h-160.365v-45zm-122.865 360v62h-227v-62zm-15-15v-285h165v285zm-289.865-405h247.73l22.5 45h-292.73zm-27.135 60h90v322.5c0 4.142 3.357 7.5 7.5 7.5s7.5-3.358 7.5-7.5v-322.5h197v345h-204.5c-4.143 0-7.5 3.358-7.5 7.5v69.5h-90zm347 422v-62h135v62z"/><path d="m82.5 90h-45c-4.143 0-7.5 3.358-7.5 7.5v75c0 4.142 3.357 7.5 7.5 7.5h45c4.143 0 7.5-3.358 7.5-7.5v-75c0-4.142-3.357-7.5-7.5-7.5zm-7.5 75h-30v-60h30z"/><path d="m399.5 150h-45c-4.143 0-7.5 3.358-7.5 7.5v75c0 4.142 3.357 7.5 7.5 7.5h45c4.143 0 7.5-3.358 7.5-7.5v-75c0-4.142-3.357-7.5-7.5-7.5zm-7.5 75h-30v-60h30z"/><path d="m474.5 150h-45c-4.143 0-7.5 3.358-7.5 7.5v45c0 4.142 3.357 7.5 7.5 7.5h45c4.143 0 7.5-3.358 7.5-7.5v-45c0-4.142-3.357-7.5-7.5-7.5zm-7.5 45h-30v-30h30z"/><path d="m399.5 315h-45c-4.143 0-7.5 3.358-7.5 7.5v75c0 4.142 3.357 7.5 7.5 7.5h45c4.143 0 7.5-3.358 7.5-7.5v-75c0-4.142-3.357-7.5-7.5-7.5zm-7.5 75h-30v-60h30z"/><path d="m142.5 240h152c4.143 0 7.5-3.358 7.5-7.5v-60c0-4.142-3.357-7.5-7.5-7.5h-38.5v-67.5c0-4.142-3.357-7.5-7.5-7.5h-60c-4.143 0-7.5 3.358-7.5 7.5v67.5h-38.5c-4.143 0-7.5 3.358-7.5 7.5v60c0 4.142 3.357 7.5 7.5 7.5zm98.5-75h-15v-60h15zm-45-60h15v60h-15zm-46 75h137v45h-137z"/><path d="m142.5 405h152c4.143 0 7.5-3.358 7.5-7.5v-60c0-4.142-3.357-7.5-7.5-7.5h-38.5v-67.5c0-4.142-3.357-7.5-7.5-7.5h-60c-4.143 0-7.5 3.358-7.5 7.5v67.5h-38.5c-4.143 0-7.5 3.358-7.5 7.5v60c0 4.142 3.357 7.5 7.5 7.5zm98.5-75h-15v-60h15zm-45-60h15v60h-15zm-46 75h137v45h-137z"/><path d="m82.5 255h-45c-4.143 0-7.5 3.358-7.5 7.5v75c0 4.142 3.357 7.5 7.5 7.5h45c4.143 0 7.5-3.358 7.5-7.5v-75c0-4.142-3.357-7.5-7.5-7.5zm-7.5 75h-30v-60h30z"/></g></svg>