<svg viewBox="0 0 512.00136 512" width="80" height="80" xmlns="http://www.w3.org/2000/svg"><path d="m82.664062 146.953125c-.179687 0-.359374-.007813-.542968-.019531-1.703125-.121094-3.386719-.25-5.046875-.382813-4.132813-.328125-7.210938-3.941406-6.882813-8.070312.328125-4.128907 3.925782-7.210938 8.070313-6.882813 1.621093.128906 3.265625.253906 4.929687.375 4.128906.292969 7.242188 3.882813 6.945313 8.015625-.28125 3.949219-3.574219 6.964844-7.472657 6.964844zm0 0"/><path d="m122.453125 148.757812c-1.691406-.039062-3.371094-.078124-5.039063-.125-4.140624-.117187-7.40625-3.566406-7.289062-7.707031.113281-4.140625 3.515625-7.398437 7.703125-7.289062 1.644531.046875 3.300781.085937 4.960937.125 4.144532.09375 7.425782 3.527343 7.328126 7.667969-.089844 4.082031-3.429688 7.332031-7.492188 7.332031-.058594 0-.113281-.003907-.171875-.003907zm0 0"/><path d="m162.726562 148.898438c-1.679687.027343-3.355468.046874-5.027343.066406-.023438 0-.050781 0-.078125 0-4.105469 0-7.457032-3.308594-7.5-7.425782-.039063-4.140624 3.28125-7.53125 7.425781-7.578124 1.648437-.015626 3.304687-.035157 4.960937-.058594 4.171876-.070313 7.546876 3.246094 7.609376 7.390625.058593 4.140625-3.25 7.546875-7.390626 7.605469zm0 0"/><path d="m202.234375 132.597656c4.171875-.222656 7.664063 2.96875 7.875 7.101563.214844 4.140625-2.96875 7.664062-7.105469 7.878906-1.675781.085937-3.355468.167969-5.039062.246094-.117188.007812-.238282.007812-.355469.007812-3.980469 0-7.296875-3.128906-7.484375-7.148437-.195312-4.136719 3.003906-7.648438 7.140625-7.84375 1.65625-.078125 3.3125-.15625 4.96875-.242188zm0 0"/><path d="m42.925781 142.417969c-.433593 0-.875-.039063-1.316406-.117188-1.777344-.3125-3.5-.640625-5.109375-.972656-4.058594-.832031-6.671875-4.796875-5.839844-8.855469.832032-4.058594 4.800782-6.671875 8.855469-5.839844 1.480469.304688 3.0625.605469 4.710937.898438 4.078126.722656 6.800782 4.617188 6.078126 8.695312-.644532 3.632813-3.808594 6.191407-7.378907 6.191407zm0 0"/><path d="m280.964844 124.695312c4.082031-.683593 7.949218 2.074219 8.632812 6.160157.683594 4.085937-2.074218 7.953125-6.160156 8.632812-1.652344.277344-3.324219.546875-5.019531.8125-.390625.058594-.777344.089844-1.164063.089844-3.632812 0-6.824218-2.648437-7.402344-6.351563-.636718-4.089843 2.167969-7.925781 6.261719-8.5625 1.636719-.253906 3.253907-.515624 4.851563-.78125zm0 0"/><path d="m241.800781 129.714844c4.132813-.402344 7.789063 2.621094 8.1875 6.742187.398438 4.125-2.621093 7.789063-6.746093 8.1875-1.667969.160157-3.34375.316407-5.027344.46875-.226563.023438-.457032.03125-.679688.03125-3.839844 0-7.109375-2.929687-7.464844-6.828125-.371093-4.125 2.671876-7.769531 6.800782-8.144531 1.652344-.148437 3.296875-.300781 4.929687-.457031zm0 0"/><path d="m194.027344 235.839844c-7.15625 7.152344-2.0625 19.40625 8.039062 19.40625h15.027344v39.179687c0 4.140625 3.355469 7.5 7.5 7.5 4.140625 0 7.5-3.359375 7.5-7.5v-39.179687h15.027344c10.117187 0 15.183594-12.261719 8.039062-19.40625l-22.527344-22.527344c-4.441406-4.445312-11.640624-4.445312-16.078124 0zm16.804687 4.40625 13.761719-13.761719 13.761719 13.761719zm0 0"/><path d="m106.117188 246.402344c-7.15625 7.15625-2.066407 19.410156 8.039062 19.410156h15.027344v39.175781c0 4.144531 3.355468 7.5 7.5 7.5 4.140625 0 7.5-3.355469 7.5-7.5v-39.175781h15.023437c10.117188 0 15.183594-12.265625 8.042969-19.410156l-22.527344-22.527344c-4.433594-4.433594-11.648437-4.429688-16.082031 0zm16.804687 4.410156 13.761719-13.761719 13.761718 13.761719zm0 0"/><path d="m18.203125 246.402344c-3.261719 3.265625-4.230469 8.128906-2.460937 12.390625 1.765624 4.265625 5.886718 7.019531 10.5 7.019531h15.027343v39.175781c0 4.144531 3.359375 7.5 7.503907 7.5 4.140624 0 7.5-3.355469 7.5-7.5v-39.175781h15.023437c4.617187 0 8.738281-2.753906 10.503906-7.019531 1.769531-4.261719.800781-9.125-2.464843-12.390625l-22.523438-22.527344c-4.4375-4.433594-11.648438-4.429688-16.082031 0zm16.808594 4.410156 13.761719-13.761719 13.757812 13.761719zm0 0"/><path d="m18.996094 0h.136718c39.171876.273438 80.773438 1.941406 123.644532 4.949219 4.132812.292969 7.246094 3.875 6.957031 8.007812-.292969 4.132813-3.878906 7.242188-8.007813 6.957031-42.558593-2.988281-83.839843-4.640624-122.695312-4.914062-.011719 0-.019531 0-.03125 0-2.207031 0-4 1.785156-4 3.988281v157.484375c0 2.15625 1.683594 3.902344 3.835938 3.980469 99.507812 3.550781 223.28125-2.277344 272.316406-29.28125 9.625-5.648437 22.765625-14.125 22.898437-14.207031 3.476563-2.25 8.121094-1.25 10.367188 2.230468 2.246093 3.480469 1.246093 8.121094-2.234375 10.367188-.488282.316406-10.816406 6.980469-20.058594 12.535156-.605469 12.910156-2.253906 55-.175781 92.210938.226562 4.136718-2.9375 7.675781-7.070313 7.90625-.144531.007812-.285156.011718-.425781.011718-3.949219 0-7.261719-3.089843-7.480469-7.082031-1.777344-31.785156-.886718-66.984375-.191406-85.269531-71.339844 29.953125-221.929688 27.230469-268.480469 25.566406-10.261719-.363281-18.300781-8.695312-18.300781-18.96875v-157.484375c0-10.515625 8.519531-18.988281 18.996094-18.988281zm0 0"/><path d="m296.828125 282.308594c4.089844-.601563 7.910156 2.226562 8.515625 6.320312 6.089844 41.171875 20.296875 97.636719 20.441406 98.203125.050782.199219.09375.398438.125.601563.160156.960937 3.832032 23.761718-4.777344 43.0625-3.097656 6.945312-2.21875 19.976562 4.601563 28.925781 5.097656 6.679687 12.09375 9.390625 20.816406 8.058594 37.109375-5.683594 72.828125 3.125 97.984375 24.167969 11.355469 9.503906 28.695313 4.777343 40.839844-4.121094 9.417969-6.902344 12.132812-13.527344 11.5625-14.902344-1.515625-1.917969-4.230469-2.449219-10.535156-3.28125-48.28125-6.371094-37.960938-34.242188-86.402344-56.191406-19.261719-8.730469-19.105469-27.4375-20.414062-39.625-.039063-.359375-.050782-.722656-.039063-1.085938.050781-1.296875 4.839844-131.105468-1.582031-244.847656-.367188-6.492188-.210938-13.097656.464844-19.636719 2.019531-19.554687-1.164063-54.128906-45.0625-66.363281-5.390626-.902344-69.363282-11.460938-156.753907-18.957031-4.128906-.355469-7.1875-3.988281-6.832031-8.113281.351562-4.128907 3.984375-7.183594 8.109375-6.832032 91.574219 7.851563 157.710937 19.066406 158.367187 19.175782.242188.042968.484376.097656.722657.164062 24.574219 6.746094 41.515625 20.300781 50.347656 40.292969 6.953125 15.730469 7.113281 31.617187 6.023437 42.175781-.59375 5.746094-.730468 11.546875-.410156 17.246094 6.25 110.703125 1.949219 236.40625 1.617188 245.722656 1.335937 12.96875 1.273437 22.324219 11.636718 27.019531 52.875 23.960938 40.359376 49.464844 82.171876 54.984375 7.332031.96875 14.914062 1.96875 20.351562 8.867188 6.355469 8.066406 3.34375 19.835937-7.859375 30.714844-17.25 16.75-46.210937 25.609374-65.949219 9.101562-21.851562-18.285156-53.230468-25.882812-86.089844-20.847656-14.140624 2.164062-26.578124-2.734375-35.011718-13.792969-9.527344-12.496094-12.207032-31.054687-6.371094-44.132813 6.320312-14.167968 4.046875-31.9375 3.71875-34.230468-1.230469-4.90625-14.703125-59.132813-20.648438-99.328125-.605468-4.097657 2.222657-7.910157 6.320313-8.515625zm0 0"/></svg>