<svg id="Layer_5" enable-background="new 0 0 64 64" height="512" viewBox="0 0 64 64" width="512" xmlns="http://www.w3.org/2000/svg"><path d="m17 1v13.248h2v-11.248h42v58h-42v-18.586l2.414-2.414-1-1 3.129-3.129-1.414-1.414-3.129 3.129-2.587-2.587 3.154-3.163-1.416-1.412-3.152 3.161-.999-.999-11.464 11.464c-.991.99-1.536 2.306-1.536 3.708 0 2.89 2.352 5.242 5.243 5.242 1.399 0 2.716-.545 3.707-1.535l7.05-7.051v18.586h46v-62zm-8.464 49.05c-.613.613-1.428.95-2.293.95-1.788 0-3.243-1.454-3.243-3.242 0-.867.337-1.681.95-2.293l10.05-10.051 4.586 4.586z"/><path d="m32 39c-9.374 0-17-7.626-17-17s7.626-17 17-17 17 7.626 17 17-7.626 17-17 17zm0-29c-6.617 0-12 5.383-12 12s5.383 12 12 12 12-5.383 12-12-5.383-12-12-12z" fill="#f0bc5e"/><path d="m32 21c-.551 0-1-.449-1-1v-1h1c.551 0 1 .449 1 1h2c0-1.302-.839-2.402-2-2.816v-2.184h-2v2h-2v3c0 1.654 1.346 3 3 3 .551 0 1 .449 1 1v1h-1c-.551 0-1-.449-1-1h-2c0 1.302.839 2.402 2 2.816v2.184h2v-2h2v-3c0-1.654-1.346-3-3-3z"/><circle cx="38" cy="22" r="1"/><circle cx="26" cy="22" r="1"/><path d="m32 35c-7.168 0-13-5.832-13-13s5.832-13 13-13 13 5.832 13 13-5.832 13-13 13zm0-24c-6.065 0-11 4.935-11 11s4.935 11 11 11 11-4.935 11-11-4.935-11-11-11z"/><g fill="#f0bc5e"><path d="m27 59h-6v-12h6z"/><path d="m59 59h-6v-28h6z"/><path d="m51 59h-6v-24h6z"/><path d="m43 59h-6v-20h6z"/><path d="m35 59h-6v-16h6z"/><path d="m59 26h-8v-19h-8v-2h16z"/></g><path d="m43 5h2v2h-2z"/><path d="m47 5h12v2h-12z"/><path d="m51 9h8v2h-8z"/><path d="m51 13h8v2h-8z"/><path d="m51 17h8v2h-8z"/><path d="m51 21h8v2h-8z"/><path d="m51 25h8v2h-8z"/></svg>