<svg height="512pt" viewBox="0 -74 512 511" width="512pt" xmlns="http://www.w3.org/2000/svg"><path d="m314.089844 102.886719v12.449219c0 4.144531 3.355468 7.5 7.5 7.5 4.140625 0 7.5-3.355469 7.5-7.5v-12.449219c0-4.144531-3.359375-7.5-7.5-7.5-4.144532 0-7.5 3.355469-7.5 7.5zm0 0"/><path d="m152.773438 102.886719v12.449219c0 4.144531 3.359374 7.5 7.5 7.5 4.144531 0 7.5-3.355469 7.5-7.5v-12.449219c0-4.144531-3.355469-7.5-7.5-7.5-4.140626 0-7.5 3.355469-7.5 7.5zm0 0"/><path d="m512 77.878906c0-42.664062-34.714844-77.378906-77.378906-77.378906-42.667969 0-77.382813 34.710938-77.382813 77.378906 0 16.941406 5.488281 32.617188 14.757813 45.375l-98.089844 79.152344c-21.203125 17.109375-51.984375 17.109375-73.1875 0l-169.527344-136.804688c10.464844-10.820312 25.121094-17.570312 41.328125-17.570312h269.832031c4.140626 0 7.5-3.355469 7.5-7.5 0-4.140625-3.359374-7.5-7.5-7.5h-269.832031c-39.988281 0-72.519531 32.53125-72.519531 72.519531v185.3125c0 33.882813 17.339844 72.519531 72.519531 72.519531h329.589844c39.984375 0 72.519531-32.53125 72.519531-72.519531v-146.769531c22.382813-13.578125 37.371094-38.179688 37.371094-66.214844zm-109.894531 270.503906h-329.585938c-16.207031 0-30.859375-6.746093-41.324219-17.566406l43.757813-35.316406c3.226563-2.601562 3.730469-7.320312 1.128906-10.546875-2.601562-3.222656-7.324219-3.726563-10.546875-1.125l-43.292968 34.9375c-4.605469-8.269531-7.242188-17.78125-7.242188-27.898437v-185.316407c0-10.117187 2.636719-19.628906 7.242188-27.898437l149.390624 120.554687-81.316406 65.621094c-3.222656 2.601563-3.726562 7.324219-1.125 10.546875 1.480469 1.835938 5.921875 4.511719 10.546875 1.125l83.835938-67.65625s21.765625 22.484375 53.738281 22.484375c31.976562 0 53.742188-22.484375 53.742188-22.484375l152.378906 122.96875c-10.464844 10.824219-25.117188 17.570312-41.328125 17.570312zm57.519531-57.515624c0 10.117187-2.632812 19.625-7.238281 27.894531l-149.390625-120.550781 78.953125-63.714844c13.824219 12.871094 32.339843 20.765625 52.671875 20.765625 8.75 0 17.15625-1.480469 25.003906-4.171875zm-25.003906-150.605469c-34.398438 0-62.382813-27.984375-62.382813-62.382813 0-34.394531 27.984375-62.378906 62.382813-62.378906 34.394531 0 62.378906 27.984375 62.378906 62.378906 0 34.398438-27.984375 62.382813-62.378906 62.382813zm0 0"/><path d="m212.574219 129.894531c0 17.753907 12.722656 32.195313 28.355469 32.195313 15.636718 0 28.359374-14.441406 28.359374-32.195313 0-17.753906-12.722656-32.199219-28.359374-32.199219-15.632813 0-28.355469 14.441407-28.355469 32.199219zm41.714843 0c0 9.480469-5.992187 17.195313-13.355468 17.195313-7.367188 0-13.359375-7.714844-13.359375-17.195313 0-9.484375 5.992187-17.199219 13.359375-17.199219 7.363281 0 13.355468 7.714844 13.355468 17.199219zm0 0"/><path d="m440.164062 118.011719c-4.144531 0-7.5-3.359375-7.5-7.5v-49.136719l-20.148437 16.976562c-3.167969 2.671876-7.898437 2.265626-10.566406-.902343s-2.265625-7.898438.902343-10.566407l32.480469-27.371093c2.230469-1.878907 5.347657-2.292969 7.996094-1.0625 2.644531 1.230469 4.335937 3.882812 4.335937 6.800781v65.261719c0 4.140625-3.355468 7.5-7.5 7.5zm0 0"/></svg>