<svg id="Layer_5" enable-background="new 0 0 64 64" height="512" viewBox="0 0 64 64" width="512" xmlns="http://www.w3.org/2000/svg"><path d="m25 29v-2h-13v14h40v-14h-13v2h11v10h-36v-10z"/><path d="m43 23v2h13v18h-48v-18h13v-2h-15v35c0 2.757 2.243 5 5 5h42c2.757 0 5-2.243 5-5v-35zm10 38h-42c-1.654 0-3-1.346-3-3v-13h48v13c0 1.654-1.346 3-3 3z"/><path d="m32 31c-8.271 0-15-6.729-15-15s6.729-15 15-15 15 6.729 15 15-6.729 15-15 15z" fill="#f0bc5e"/><path d="m37 13v-1c0-2.414-1.721-4.434-4-4.899v-2.101h-2v2h-4v5c0 2.757 2.243 5 5 5 1.654 0 3 1.346 3 3v3h-3c-1.654 0-3-1.346-3-3v-1h-2v1c0 2.414 1.721 4.434 4 4.899v2.101h2v-2h4v-5c0-2.757-2.243-5-5-5-1.654 0-3-1.346-3-3v-3h3c1.654 0 3 1.346 3 3v1z"/><path d="m21 15h2v2h-2z"/><path d="m41 15h2v2h-2z"/><path d="m52 59h-12c-1.103 0-2-.897-2-2v-4c0-1.103.897-2 2-2h12c1.103 0 2 .897 2 2v4c0 1.103-.897 2-2 2z" fill="#f0bc5e"/><path d="m18 59h-6c-1.103 0-2-.897-2-2v-5h2v5h6z"/><path d="m10 47h2v2h-2z"/><path d="m49 1h2v2h-2z"/><path d="m49 5h2v2h-2z"/><path d="m51 3h2v2h-2z"/><path d="m47 3h2v2h-2z"/><path d="m53 13h2v2h-2z"/><path d="m53 17h2v2h-2z"/><path d="m55 15h2v2h-2z"/><path d="m51 15h2v2h-2z"/><path d="m8 15h2v2h-2z"/><path d="m8 19h2v2h-2z"/><path d="m10 17h2v2h-2z"/><path d="m6 17h2v2h-2z"/><path d="m12 5h2v2h-2z"/><path d="m12 9h2v2h-2z"/><path d="m14 7h2v2h-2z"/><path d="m10 7h2v2h-2z"/></svg>