<svg id="Layer_3" enable-background="new 0 0 64 64" width="80" height="80" viewBox="0 0 64 64" xmlns="http://www.w3.org/2000/svg"><path d="m61 6.816c1.161-.414 2-1.514 2-2.816 0-1.654-1.346-3-3-3h-56c-1.654 0-3 1.346-3 3 0 1.302.839 2.402 2 2.816v48.184h-2v8h10v-8h-2v-37h6v26.184c-1.161.414-2 1.514-2 2.816 0 1.654 1.346 3 3 3h8c1.654 0 3-1.346 3-3s-1.346-3-3-3h-3v-26h2v-8h-14v-3h46v3h-14v8h2v26h-3c-1.654 0-3 1.346-3 3s1.346 3 3 3h8c1.654 0 3-1.346 3-3 0-1.302-.839-2.402-2-2.816v-26.184h6v37h-2v8h10v-8h-2zm-57-3.816h56c.552 0 1 .448 1 1s-.448 1-1 1h-56c-.552 0-1-.448-1-1s.448-1 1-1zm5 58h-6v-4h6zm-4-6v-2h2v2zm20-8c0 .552-.448 1-1 1h-8c-.552 0-1-.448-1-1s.448-1 1-1h8c.552 0 1 .448 1 1zm-6-3h-2v-26h2zm2-28h-8v-4h8zm-10-4v4h-2v-4zm-4 39h-2v-44h2zm52-44v44h-2v-44zm-16 5h8v4h-8zm5 36h-8c-.552 0-1-.448-1-1s.448-1 1-1h8c.552 0 1 .448 1 1s-.448 1-1 1zm-1-4h-2v-26h2zm6-28v-4h2v4zm4 37h2v2h-2zm4 8h-6v-4h6z"/></svg>