<svg id="Layer_1" enable-background="new 0 0 512.034 512.034" width="70" height="70" viewBox="0 0 512.034 512.034" xmlns="http://www.w3.org/2000/svg"><g><path fill="#898b96" d="m237.517 296.013c-6.065 0-11-4.935-11-11 0-4.143-3.358-7.5-7.5-7.5s-7.5 3.357-7.5 7.5c0 14.337 11.664 26 26 26 7.233 0 13.782-2.971 18.5-7.754 4.718 4.783 11.267 7.754 18.5 7.754 14.336 0 26-11.663 26-26 0-4.143-3.358-7.5-7.5-7.5s-7.5 3.357-7.5 7.5c0 6.065-4.935 11-11 11s-11-4.935-11-11v-6c12.407 0 22.5-10.094 22.5-22.5s-10.093-22.5-22.5-22.5h-15c-12.407 0-22.5 10.094-22.5 22.5s10.093 22.5 22.5 22.5v6c0 6.065-4.934 11-11 11zm3.5-39.5c0-4.136 3.364-7.5 7.5-7.5h15c4.136 0 7.5 3.364 7.5 7.5s-3.364 7.5-7.5 7.5h-15c-4.136 0-7.5-3.364-7.5-7.5z"/><path fill="#898b96" d="m301.017 229.013v13c0 4.143 3.358 7.5 7.5 7.5s7.5-3.357 7.5-7.5v-13c0-4.143-3.358-7.5-7.5-7.5s-7.5 3.357-7.5 7.5z"/><path fill="#898b96" d="m196.017 229.013v13c0 4.143 3.358 7.5 7.5 7.5s7.5-3.357 7.5-7.5v-13c0-4.143-3.358-7.5-7.5-7.5s-7.5 3.357-7.5 7.5z"/><path fill="#898b96" d="m447.312 402.222c-8.748-28.719-31.363-69.441-89.186-103.161 10.678-16.436 16.891-36.029 16.891-57.048 0-11.932-1.987-23.641-5.907-34.802-1.372-3.908-5.652-5.965-9.562-4.591-3.908 1.372-5.963 5.653-4.591 9.562 3.357 9.56 5.06 19.597 5.06 29.831 0 49.626-40.374 90-90 90h-28c-49.626 0-90-40.374-90-90s40.374-90 90-90h28c26.627 0 51.741 11.698 68.902 32.095 2.666 3.17 7.397 3.576 10.567.911 3.169-2.667 3.577-7.398.91-10.567-7.227-8.59-15.668-15.849-24.96-21.629l57.411-80.596c7.594-10.66 10.247-24.077 7.28-36.813-2.974-12.763-11.311-23.654-22.875-29.883-12.612-6.791-27.357-7.356-40.456-1.544-13.047 5.789-22.484 17.038-25.891 30.862l-25.215 102.317c-1.884-.101-3.775-.154-5.674-.154h-28c-1.905 0-3.797.054-5.678.155l-25.214-102.317c-3.407-13.824-12.844-25.074-25.891-30.862-13.098-5.812-27.843-5.248-40.457 1.544-11.564 6.229-19.901 17.12-22.875 29.883-2.967 12.735-.313 26.152 7.28 36.813l57.436 80.63c-29.755 18.556-49.6 51.579-49.6 89.156 0 21.019 6.212 40.612 16.891 57.048-57.823 33.721-80.438 74.442-89.186 103.161-5.304 17.414 3.938 35.896 21.041 42.077 1.876.678 3.794 1.187 5.74 1.526.14 5.378.954 10.873 2.489 16.364 1.114 3.989 5.251 6.319 9.241 5.205 3.99-1.115 6.32-5.253 5.205-9.242-5.216-18.668.219-37.176 13.847-47.15 7.993-5.85 18.113-8.135 28.492-6.437 12.686 2.075 24.6 9.84 32.69 21.301 15.388 21.804 12.818 50.584-5.728 64.157-15.196 11.121-37.011 8.789-53.048-5.675-3.077-2.775-7.819-2.53-10.593.547-2.774 3.075-2.529 7.818.547 10.592 12.127 10.938 26.899 16.548 41.246 16.547 10.937 0 21.627-3.261 30.707-9.906 1.692-1.238 3.28-2.573 4.781-3.981 16.524 9.078 35.117 13.866 54.114 13.866h21c19.006 0 37.615-4.794 54.146-13.882 1.505 1.414 3.098 2.754 4.796 3.997 8.871 6.492 19.513 9.884 30.659 9.884 3.01 0 6.057-.247 9.115-.747 16.629-2.722 32.128-12.729 42.522-27.456 8.261-11.705 12.421-25.043 12.716-37.969 1.973-.339 3.919-.852 5.823-1.54 17.104-6.183 26.346-24.665 21.042-42.079zm-131.842-363.782c2.289-9.288 8.635-16.848 17.41-20.741 8.825-3.917 18.762-3.538 27.26 1.04 7.776 4.188 13.382 11.507 15.379 20.08 1.991 8.545.209 17.55-4.888 24.705l-58.589 82.249c-6.837-2.985-13.998-5.238-21.369-6.712zm-174.072 25.084c-5.097-7.155-6.879-16.16-4.888-24.705 1.998-8.573 7.603-15.893 15.379-20.08 8.498-4.577 18.433-4.956 27.26-1.04 8.775 3.894 15.122 11.453 17.41 20.741l24.797 100.619c-7.429 1.488-14.576 3.766-21.353 6.736zm-27.973 335.375c-10.585 7.747-17.621 19.058-20.489 31.898-.699-.167-1.393-.359-2.076-.605-9.586-3.464-14.764-13.83-11.789-23.599 8.036-26.381 29.159-64.013 83.957-95.48 1.846 2.108 3.777 4.14 5.784 6.094-20.44 19.059-33.096 45.07-35.421 72.896-7.2 1.469-13.988 4.42-19.966 8.796zm132.068 98.114c-15.623 0-30.929-3.728-44.681-10.824 11.462-19.897 10.244-47.243-5.091-68.972-10.394-14.727-25.893-24.733-42.522-27.455-1.557-.255-3.109-.431-4.656-.555 2.532-23.898 13.867-46.11 31.831-62.249 17.323 12.606 38.628 20.055 61.643 20.055h28c23.006 0 44.303-7.443 61.623-20.04 17.949 16.134 29.277 38.328 31.806 62.239-1.532.124-3.069.298-4.61.55-16.629 2.722-32.128 12.729-42.522 27.455v.001c-15.33 21.722-16.552 49.058-5.101 68.954-13.761 7.108-29.084 10.841-44.719 10.841zm149.984-21.855c-8.09 11.462-20.004 19.227-32.69 21.302-10.378 1.697-20.499-.587-28.493-6.438-18.545-13.572-21.115-42.353-5.727-64.156v.001c8.09-11.462 20.004-19.227 32.689-21.302 10.381-1.699 20.5.587 28.493 6.438 18.546 13.572 21.116 42.353 5.728 64.155zm25.696-44.966c-.718.26-1.449.459-2.185.631-2.828-12.702-9.692-24.102-20.38-31.924-5.992-4.385-12.798-7.34-20.017-8.806-2.325-27.836-14.975-53.816-35.394-72.863 2.015-1.961 3.954-4.001 5.807-6.117 54.798 31.468 75.921 69.099 83.956 95.48 2.978 9.768-2.2 20.135-11.787 23.599z"/></g></svg>