<svg viewBox="0 -27 512 512" xmlns="http://www.w3.org/2000/svg" height="60" width="60"><path d="m218 308h-28.355469c-6.894531 0-12.5 5.605469-12.5 12.5v74c0 6.894531 5.605469 12.5 12.5 12.5h28.355469c6.894531 0 12.5-5.605469 12.5-12.5v-74c0-6.894531-5.605469-12.5-12.5-12.5zm-2.5 84h-23.355469v-69h23.355469zm0 0"/><path d="m332 372.632812c-4.144531 0-7.5 3.359376-7.5 7.5v16.394532c0 4.144531 3.355469 7.5 7.5 7.5s7.5-3.355469 7.5-7.5v-16.394532c0-4.140624-3.355469-7.5-7.5-7.5zm0 0"/><path d="m397.28125 242.597656h-4.5v-61.097656c0-6.894531-5.609375-12.5-12.5-12.5h-58.519531c-6.890625 0-12.5 5.605469-12.5 12.5v61.097656h-4.5c-6.890625 0-12.5 5.605469-12.5 12.5v13.402344c0 6.894531 5.609375 12.5 12.5 12.5h92.519531c6.894531 0 12.5-5.605469 12.5-12.5v-13.402344c0-6.894531-5.609375-12.5-12.5-12.5zm-73.015625-58.597656h53.515625v58.597656h-53.515625zm70.515625 82h-87.519531v-8.402344h87.519531zm0 0"/><path d="m504.5 442h-28.90625v-33.78125h25.820312c4 0 7.476563-1.878906 9.289063-5.023438 1.816406-3.144531 1.707031-7.09375-.296875-10.558593l-16.007812-27.726563c1.941406-.851562 3.558593-2.230468 4.605468-4.046875 1.816406-3.144531 1.707032-7.09375-.296875-10.558593l-13.359375-23.144532c1.507813-.859375 2.765625-2.0625 3.636719-3.570312 1.816406-3.148438 1.703125-7.09375-.296875-10.558594l-22.578125-39.109375c-.09375-.160156-.203125-.300781-.300781-.453125v-72.441406h30.910156c4.363281 0 7.878906-2.082032 9.402344-5.574219 1.527344-3.488281.667968-7.484375-2.292969-10.691406l-143.90625-155.542969c-2.304687-2.492188-5.550781-3.921875-8.898437-3.921875-3.351563 0-6.597657 1.429687-8.902344 3.921875l-32.59375 35.230469h-112.027344v-19.472657c6.660156-.265624 12-5.753906 12-12.476562v-20c0-6.894531-5.605469-12.5-12.5-12.5h-80c-6.894531 0-12.5 5.605469-12.5 12.5v20c0 6.722656 5.339844 12.210938 12 12.476562v19.472657h-18.210938c-5.042968 0-10.789062 2.734375-13.972656 6.648437l-37.78125 46.476563c-2.6875 3.304687-3.328125 7.300781-1.714844 10.695312 1.613282 3.390625 5.121094 5.417969 9.378907 5.417969h17.078125v79.078125h-14.6875c-5.042969 0-10.789063 2.730469-13.972656 6.648437l-37.78125 46.476563c-2.6875 3.300781-3.328126 7.300781-1.714844 10.695313 1.613281 3.390624 5.121094 5.417968 9.378906 5.417968h21.5v109.335938c-4.992188 6.164062-7.992188 14.007812-7.992188 22.539062 0 1.519532.101563 3.019532.285157 4.488282h-1.238281c-6.890626 0-12.5 5.609374-12.5 12.5v11.132812h-5.054688c-4.144531 0-7.5 3.359375-7.5 7.5s3.355469 7.5 7.5 7.5h497c4.144531 0 7.5-3.359375 7.5-7.5s-3.355469-7.5-7.5-7.5zm-11.078125-48.78125h-72.613281l15.78125-27.335938h41.050781zm-60.917969-42.335938 12.859375-22.273437h23.5l12.859375 22.273437zm39.199219-37.273437h-29.175781l14.585937-25.265625zm-352.203125-298.609375h75v15h-75zm63 30v35h-51v-35zm-117.535156 73.683594 30.96875-38.097656c.425781-.457032 1.765625-1.097657 2.355468-1.136719h18.210938v3.050781c0 6.894531 5.605469 12.5 12.5 12.5h56c6.894531 0 12.5-5.605469 12.5-12.5v-3.050781h98.148438l-36.300782 39.234375zm130.953125 76.773437c1.527343 3.488281 5.042969 5.570313 9.40625 5.570313h30.910156v11.738281h-149.957031v-11.765625h87.722656c6.894531 0 12.5-5.605469 12.5-12.5v-33c0-6.894531-5.605469-12.5-12.5-12.5h-87.722656v-9.3125h159.191406l-47.253906 51.078125c-2.964844 3.203125-3.820313 7.199219-2.296875 10.691406zm-109.640625-9.457031v-28h51.863281v28zm66.867187 0v-28h18.355469v28zm11.902344 256h-137.492187v-8.632812h137.492187zm-104.460937-23.632812h-19.074219c-.324219-1.445313-.503907-2.945313-.503907-4.488282 0-11.515625 9.367188-20.878906 20.878907-20.878906 3.109375 0 6.117187.714844 8.84375 2-6.230469 5.007812-10.230469 12.683594-10.230469 21.28125 0 .703125.03125 1.398438.085938 2.085938zm81.476562-12.917969c.457031 3.160156 2.863281 5.6875 5.996094 6.292969 3.402344.660156 6 3.324218 6.679687 6.625h-79.042969c-.117187-.679688-.195312-1.371094-.195312-2.082032 0-6.78125 5.511719-12.296875 12.285156-12.296875 1.832032 0 3.597656.394531 5.246094 1.171875 1.882812.894532 4.054688.960938 5.988281.1875 1.9375-.773437 3.464844-2.320312 4.214844-4.261718 2.988281-7.738282 10.5625-12.9375 18.84375-12.9375 9.976563 0 18.566406 7.4375 19.984375 17.300781zm-8.628906-30.394531v-52.054688h23.355468v69h-3.5625c-4.195312-7.917969-11.3125-14.019531-19.792968-16.945312zm-35.578125 7.824218c-2.042969 1.933594-3.867188 4.109375-5.410157 6.503906-1.527343-.265624-3.082031-.398437-4.660156-.398437-.042968 0-.082031.003906-.125.003906-3.691406-3.804687-8.199218-6.769531-13.160156-8.65625v-57.332031h23.355469zm138.378906-115.878906h-66.234375c-4.144531 0-7.5 3.359375-7.5 7.5s3.355469 7.5 7.5 7.5h66.234375v160h-56.1875v-11.132812c0-6.097657-4.394531-11.183594-10.183594-12.277344-.304687-4.824219-2.089843-9.304688-4.933593-12.949219 4.066406-2.066406 6.859374-6.277344 6.859374-11.140625v-74c0-6.894531-5.605468-12.5-12.5-12.5h-28.355468c-6.894532 0-12.5 5.605469-12.5 12.5v52.855469c-1.898438.203125-3.761719.550781-5.578125 1.050781v-53.90625c0-6.894531-5.605469-12.5-12.5-12.5h-28.355469c-6.894531 0-12.5 5.605469-12.5 12.5v57.589844c-3.679688.242187-7.203125 1.039062-10.5 2.3125v-98.402344h85c4.144531 0 7.5-3.359375 7.5-7.5s-3.355469-7.5-7.5-7.5h-110.738281l30.972656-38.097656c.425781-.460938 1.765625-1.097656 2.355469-1.136719l179.644531-.003906zm161.546875 175v-54.5c0-4.140625-3.355469-7.5-7.5-7.5-4.140625 0-7.5 3.359375-7.5 7.5v54.5h-63.515625v-118.402344h63.515625v28.902344c0 4.140625 3.359375 7.5 7.5 7.5 4.144531 0 7.5-3.359375 7.5-7.5v-31.402344c0-6.894531-5.605469-12.5-12.5-12.5h-68.515625c-6.894531 0-12.5 5.605469-12.5 12.5v120.902344h-53.03125v-246.59375l99.789063-107.859375 35.203124 38.050781c1.476563 1.597656 3.488282 2.40625 5.503907 2.40625 1.824219 0 3.648437-.660156 5.09375-1.996094 3.039062-2.8125 3.226562-7.558593.410156-10.597656l-40.707031-44c-1.417969-1.535156-3.414063-2.40625-5.503906-2.40625-2.09375 0-4.085938.871094-5.507813 2.40625l-106.039063 114.617188h-21.996093l133.542969-144.34375 133.539062 144.34375h-21.992188l-41.285156-44.621094c-2.8125-3.042969-7.558594-3.226562-10.597656-.414062-3.039062 2.816406-3.226562 7.558593-.410156 10.601562l40.535156 43.8125v75.3125c-1.042969.859375-1.960938 1.9375-2.691406 3.203125l-22.578125 39.109375c-2.003907 3.464844-2.113281 7.414062-.296875 10.558594.867187 1.507812 2.128906 2.714844 3.636718 3.570312l-13.363281 23.144532c-2 3.464843-2.109375 7.414062-.296875 10.558593 1.050782 1.816407 2.667969 3.195313 4.605469 4.046875l-16.007813 27.726563c-2 3.46875-2.109374 7.414062-.296874 10.558593 1.816406 3.148438 5.289062 5.023438 9.292968 5.023438h25.816406v33.78125zm62.8125 0h-6.960938v-33.78125h6.960938zm0 0"/></svg>