<svg id="logo" xmlns="http://www.w3.org/2000/svg" width="601.844" height="237" viewBox="0 0 601.844 237">
  <defs>
    <style>
      .cls-1 {
        fill: #ff7171;
      }

      .cls-1, .cls-2 {
        fill-rule: evenodd;
      }
    </style>
  </defs>
  <path class="cls-1" d="M118.135,0C52.891,0,0,53.054,0,118.5S52.891,237,118.135,237s38.382-53.054,38.382-118.5S183.38,0,118.135,0Z"/>
  <path id="Stokes." class="cls-2" d="M142.048,162.109q-4.844,3.559-13.482,3.56-23.252,0-23.251-19.724h-24.3a35.662,35.662,0,0,0,5.853,20.3Q92.72,175,103.862,180.031a59.312,59.312,0,0,0,24.7,5.034q19.536,0,31.082-8.8T171.192,152q0-13.911-9.445-23.242t-30.113-15.631q-11.223-3.438-16.995-7.366t-5.772-9.739A12.058,12.058,0,0,1,113.792,86q4.923-3.806,13.8-3.806,9.2,0,14.29,4.542t5.086,12.726h24.219a34.5,34.5,0,0,0-5.449-19.15,35.878,35.878,0,0,0-15.3-13.053A52.23,52.23,0,0,0,128,62.633a57.36,57.36,0,0,0-22.565,4.256q-10.051,4.256-15.42,11.826a29.042,29.042,0,0,0-5.369,17.227q0,18.578,20.022,29.544a122.562,122.562,0,0,0,19.941,8.144q12.594,4.132,17.438,7.856t4.844,10.68A11.638,11.638,0,0,1,142.048,162.109Zm45.294-89V94.878H174.586v17.35h12.756V159.94q0.484,25.125,25.027,25.125a47.448,47.448,0,0,0,14.128-2.128V165.014a36.714,36.714,0,0,1-6.862.573q-5.248,0-7.1-2.128t-1.857-7.038V112.227h14.935V94.878H210.674V73.108H187.342Zm41.9,66.29q0,21.115,11.262,33.391t30.154,12.276q18.891,0,30.113-12.317T312,140.053L311.834,134q-1.291-18.824-12.473-29.79T270.5,93.241a41.6,41.6,0,0,0-21.838,5.647,36.955,36.955,0,0,0-14.41,15.958,53.111,53.111,0,0,0-5.006,23.488V139.4Zm28.014-20.327a15.169,15.169,0,0,1,13.24-6.762,15.422,15.422,0,0,1,13.4,6.8q4.762,6.8,4.763,19.18,0,14.508-4.763,21.106a15.413,15.413,0,0,1-13.24,6.6q-8.719,0-13.4-6.68t-4.682-19.3Q252.577,125.835,257.259,119.071Zm119.972,64.357h26.8l-34.311-51.641,31.566-36.91H373.275l-22.363,26.6-4.521,5.893V57.722H323.059V183.428h23.332V156.421l8.4-8.512Zm89.293-2.578a35.133,35.133,0,0,0,14.209-11.744l-11.464-13.013q-7.59,9.9-21.071,9.9-8.719,0-14.411-5.238a22.077,22.077,0,0,1-6.822-13.912H482.59v-9.657q0-21.033-10.294-32.491T444.08,93.241a40.032,40.032,0,0,0-21.273,5.688,37.666,37.666,0,0,0-14.41,16.2,54.108,54.108,0,0,0-5.086,23.856v2.291q0,19.887,12.069,31.836t31.284,11.949A46.092,46.092,0,0,0,466.524,180.85Zm-11.06-64.225q4.035,4.315,4.2,12.207v1.891H427.207q1.212-8.877,5.53-13.645A14.483,14.483,0,0,1,444,112.309Q451.427,112.309,455.464,116.625ZM536.4,165.71q-3.432,2.577-10.132,2.578-7.187,0-11.464-3.356t-4.6-9.657h-22.12a25.517,25.517,0,0,0,4.844,14.936A32.778,32.778,0,0,0,506.288,181.1a45.655,45.655,0,0,0,19.5,3.97q16.227,0,26.48-7.489t10.253-19.6q0-16.941-18.488-23.816a100.3,100.3,0,0,0-14.693-3.969q-8.719-1.758-12.393-4.174a7.3,7.3,0,0,1-3.673-6.342A8.571,8.571,0,0,1,516.5,112.8q3.228-2.7,9.123-2.7,6.861,0,10.092,3.314a11.533,11.533,0,0,1,3.229,8.389h23.332a25.142,25.142,0,0,0-9.971-20.624q-9.972-7.937-26.6-7.938-15.582,0-25.229,7.9t-9.648,19.683q0,20.214,31.163,26.843,9.364,1.964,13.6,4.46t4.238,6.834A8.058,8.058,0,0,1,536.4,165.71Zm42.751,15.14a14.675,14.675,0,0,0,18.972,0,11.825,11.825,0,0,0,3.714-9.043,11.989,11.989,0,0,0-3.754-9.166,14.434,14.434,0,0,0-18.892,0,11.985,11.985,0,0,0-3.754,9.166A11.821,11.821,0,0,0,579.152,180.85Z"/>
</svg>
